<svg width="451" height="128" viewBox="0 0 451 128" fill="none" xmlns="http://www.w3.org/2000/svg">
<g filter="url(#filter0_dddddd_611_20)">
<rect x="13.5" y="9.5" width="424" height="101" rx="23.5" stroke="#FAFF00" stroke-width="3" shape-rendering="crispEdges"/>
</g>
<g filter="url(#filter1_dd_611_20)">
<rect x="12.5" y="8.5" width="426" height="103" rx="24.5" stroke="white" shape-rendering="crispEdges"/>
</g>
<g filter="url(#filter2_dd_611_20)">
<mask id="path-3-outside-1_611_20" maskUnits="userSpaceOnUse" x="37" y="37" width="305" height="47" fill="black">
<rect fill="white" x="37" y="37" width="305" height="47"/>
<path d="M39.1601 39.75H40.9751C45.3018 39.75 48.6751 40.905 51.0951 43.215C53.5151 45.4883 54.7251 48.55 54.7251 52.4C54.7251 55.0767 54.1385 57.46 52.9651 59.55C51.7918 61.6033 50.1968 63.1983 48.1801 64.335C46.1635 65.435 43.9085 65.985 41.4151 65.985H40.9751V81H39.1601V39.75ZM41.5251 64.39C44.8618 64.39 47.5935 63.3633 49.7201 61.31C51.8468 59.22 52.9101 56.2867 52.9101 52.51C52.9101 48.9167 51.9018 46.1667 49.8851 44.26C47.9051 42.3167 45.0818 41.345 41.4151 41.345H40.9751V64.39H41.5251ZM60.1418 56.25H61.9018V61.97C62.6351 60.1733 63.6984 58.7617 65.0918 57.735C66.5218 56.7083 68.1351 56.195 69.9318 56.195C71.0684 56.195 72.2234 56.4333 73.3968 56.91V58.945C72.3334 58.1383 71.1418 57.735 69.8218 57.735C68.5018 57.735 67.2184 58.1383 65.9718 58.945C64.7618 59.7517 63.7718 60.8333 63.0018 62.19C62.2684 63.5467 61.9018 64.995 61.9018 66.535V81H60.1418V56.25ZM79.9039 50.585C79.3906 50.585 78.9323 50.4017 78.5289 50.035C78.1623 49.6683 77.9789 49.21 77.9789 48.66C77.9789 48.1467 78.1623 47.7067 78.5289 47.34C78.9323 46.9733 79.3906 46.79 79.9039 46.79C80.4173 46.79 80.8573 46.9733 81.2239 47.34C81.6273 47.7067 81.8289 48.1467 81.8289 48.66C81.8289 49.21 81.6273 49.6683 81.2239 50.035C80.8573 50.4017 80.4173 50.585 79.9039 50.585ZM79.0239 56.25H80.7839V81H79.0239V56.25ZM88.9845 56.25H90.7445V59.99C92.4312 57.0933 95.1445 55.645 98.8845 55.645C100.681 55.645 102.24 56.1583 103.56 57.185C104.88 58.175 105.796 59.6783 106.31 61.695C106.786 59.8983 107.831 58.45 109.445 57.35C111.095 56.2133 112.946 55.645 115 55.645C117.676 55.645 119.748 56.4333 121.215 58.01C122.681 59.55 123.415 61.75 123.415 64.61V81H121.655V64.61C121.655 62.3 121.05 60.485 119.84 59.165C118.666 57.845 117.108 57.185 115.165 57.185C113.698 57.185 112.341 57.5517 111.095 58.285C109.848 58.9817 108.858 59.935 108.125 61.145C107.391 62.355 107.025 63.6933 107.025 65.16V81H105.265V65.6C105.265 62.96 104.641 60.9067 103.395 59.44C102.148 57.9367 100.535 57.185 98.5545 57.185C97.2345 57.185 95.9695 57.515 94.7595 58.175C93.5862 58.835 92.6145 59.7333 91.8445 60.87C91.1112 61.97 90.7445 63.18 90.7445 64.5V81H88.9845V56.25ZM142.387 80.12C144.294 80.12 146.109 79.625 147.832 78.635C149.555 77.645 150.985 76.2883 152.122 74.565V77.37C150.765 78.8733 149.28 79.9733 147.667 80.67C146.054 81.33 144.22 81.66 142.167 81.66C139.894 81.66 137.749 81.055 135.732 79.845C133.752 78.635 132.157 77.0217 130.947 75.005C129.774 72.9883 129.187 70.8433 129.187 68.57C129.187 66.1133 129.774 63.9133 130.947 61.97C132.12 59.99 133.715 58.45 135.732 57.35C137.785 56.25 140.059 55.7 142.552 55.7C146.365 55.7 149.61 57.2033 152.287 60.21L135.017 77.26C136.227 78.25 137.4 78.9833 138.537 79.46C139.674 79.9 140.957 80.12 142.387 80.12ZM130.947 68.405C130.947 71.4483 131.955 74.0517 133.972 76.215L150.087 60.21C148.877 59.1467 147.704 58.395 146.567 57.955C145.43 57.4783 144.074 57.24 142.497 57.24C140.26 57.24 138.262 57.735 136.502 58.725C134.779 59.6783 133.422 60.9983 132.432 62.685C131.442 64.3717 130.947 66.2783 130.947 68.405ZM170.753 39.75H172.513C175.41 39.75 177.537 40.4283 178.893 41.785C180.25 43.105 180.928 45.0667 180.928 47.67C180.928 49.1733 180.488 50.6217 179.608 52.015C178.728 53.3717 177.665 54.2883 176.418 54.765C179.572 55.2783 182.01 56.5983 183.733 58.725C185.457 60.8517 186.318 63.6383 186.318 67.085C186.318 69.835 185.713 72.2733 184.503 74.4C183.293 76.49 181.625 78.1217 179.498 79.295C177.408 80.4317 175.08 81 172.513 81H170.753V39.75ZM172.953 54.27C174.713 54.27 176.198 53.6283 177.408 52.345C178.618 51.0617 179.223 49.485 179.223 47.615C179.223 45.525 178.71 43.9483 177.683 42.885C176.693 41.8217 175.117 41.29 172.953 41.29H172.513V54.27H172.953ZM172.953 79.46C175.117 79.46 177.078 78.9467 178.838 77.92C180.598 76.8567 181.992 75.39 183.018 73.52C184.045 71.65 184.558 69.5417 184.558 67.195C184.558 63.4183 183.55 60.5767 181.533 58.67C179.553 56.7267 176.693 55.755 172.953 55.755H172.513V79.46H172.953ZM204.101 80.12C206.007 80.12 207.822 79.625 209.546 78.635C211.269 77.645 212.699 76.2883 213.836 74.565V77.37C212.479 78.8733 210.994 79.9733 209.381 80.67C207.767 81.33 205.934 81.66 203.881 81.66C201.607 81.66 199.462 81.055 197.446 79.845C195.466 78.635 193.871 77.0217 192.661 75.005C191.487 72.9883 190.901 70.8433 190.901 68.57C190.901 66.1133 191.487 63.9133 192.661 61.97C193.834 59.99 195.429 58.45 197.446 57.35C199.499 56.25 201.772 55.7 204.266 55.7C208.079 55.7 211.324 57.2033 214.001 60.21L196.731 77.26C197.941 78.25 199.114 78.9833 200.251 79.46C201.387 79.9 202.671 80.12 204.101 80.12ZM192.661 68.405C192.661 71.4483 193.669 74.0517 195.686 76.215L211.801 60.21C210.591 59.1467 209.417 58.395 208.281 57.955C207.144 57.4783 205.787 57.24 204.211 57.24C201.974 57.24 199.976 57.735 198.216 58.725C196.492 59.6783 195.136 60.9983 194.146 62.685C193.156 64.3717 192.661 66.2783 192.661 68.405ZM232.482 81.605C230.245 81.605 228.082 81 225.992 79.79C223.939 78.58 222.362 76.985 221.262 75.005V81H219.502V39.75H221.262V62.52C222.252 60.43 223.792 58.7617 225.882 57.515C227.972 56.2683 230.172 55.645 232.482 55.645C234.865 55.645 237.047 56.2317 239.027 57.405C241.044 58.5783 242.639 60.155 243.812 62.135C244.985 64.115 245.572 66.2783 245.572 68.625C245.572 70.9717 244.985 73.135 243.812 75.115C242.639 77.095 241.044 78.6717 239.027 79.845C237.047 81.0183 234.865 81.605 232.482 81.605ZM232.592 80.065C234.609 80.065 236.479 79.5517 238.202 78.525C239.925 77.4617 241.282 76.0683 242.272 74.345C243.299 72.585 243.812 70.6783 243.812 68.625C243.812 66.6083 243.299 64.72 242.272 62.96C241.245 61.2 239.87 59.8067 238.147 58.78C236.424 57.7167 234.554 57.185 232.537 57.185C230.52 57.185 228.632 57.7167 226.872 58.78C225.149 59.8433 223.755 61.255 222.692 63.015C221.665 64.775 221.152 66.6633 221.152 68.68C221.152 70.6967 221.665 72.585 222.692 74.345C223.755 76.0683 225.167 77.4617 226.927 78.525C228.687 79.5517 230.575 80.065 232.592 80.065ZM253.229 50.585C252.716 50.585 252.257 50.4017 251.854 50.035C251.487 49.6683 251.304 49.21 251.304 48.66C251.304 48.1467 251.487 47.7067 251.854 47.34C252.257 46.9733 252.716 46.79 253.229 46.79C253.742 46.79 254.182 46.9733 254.549 47.34C254.952 47.7067 255.154 48.1467 255.154 48.66C255.154 49.21 254.952 49.6683 254.549 50.035C254.182 50.4017 253.742 50.585 253.229 50.585ZM252.349 56.25H254.109V81H252.349V56.25ZM273.97 81.605C271.586 81.605 269.386 81.0183 267.37 79.845C265.39 78.6717 263.813 77.095 262.64 75.115C261.466 73.135 260.88 70.9717 260.88 68.625C260.88 66.2783 261.466 64.115 262.64 62.135C263.813 60.155 265.39 58.5783 267.37 57.405C269.386 56.2317 271.586 55.645 273.97 55.645C276.28 55.645 278.48 56.2683 280.57 57.515C282.66 58.725 284.2 60.32 285.19 62.3V39.75H286.95V81H285.19V75.005C284.09 76.985 282.495 78.58 280.405 79.79C278.351 81 276.206 81.605 273.97 81.605ZM273.915 80.065C275.931 80.065 277.801 79.5517 279.525 78.525C281.285 77.4617 282.678 76.0683 283.705 74.345C284.768 72.585 285.3 70.6967 285.3 68.68C285.3 66.6633 284.768 64.775 283.705 63.015C282.678 61.255 281.285 59.8433 279.525 58.78C277.801 57.7167 275.931 57.185 273.915 57.185C271.898 57.185 270.028 57.7167 268.305 58.78C266.581 59.8067 265.206 61.2 264.18 62.96C263.153 64.72 262.64 66.6083 262.64 68.625C262.64 70.6783 263.135 72.585 264.125 74.345C265.151 76.0683 266.526 77.4617 268.25 78.525C270.01 79.5517 271.898 80.065 273.915 80.065ZM305.552 81.605C303.205 81.605 301.023 81.0183 299.007 79.845C296.99 78.6717 295.395 77.095 294.222 75.115C293.048 73.0983 292.462 70.935 292.462 68.625C292.462 66.315 293.048 64.17 294.222 62.19C295.395 60.1733 296.99 58.5783 299.007 57.405C301.023 56.2317 303.205 55.645 305.552 55.645C307.935 55.645 310.19 56.2867 312.317 57.57C314.443 58.8167 315.928 60.4483 316.772 62.465V56.25H318.532V81H316.772V74.84C315.782 76.8933 314.242 78.5433 312.152 79.79C310.098 81 307.898 81.605 305.552 81.605ZM305.662 80.065C307.678 80.065 309.548 79.5517 311.272 78.525C312.995 77.4617 314.352 76.0683 315.342 74.345C316.368 72.585 316.882 70.6783 316.882 68.625C316.882 66.6083 316.368 64.72 315.342 62.96C314.315 61.2 312.94 59.8067 311.217 58.78C309.493 57.7167 307.623 57.185 305.607 57.185C303.59 57.185 301.702 57.7167 299.942 58.78C298.218 59.8433 296.825 61.255 295.762 63.015C294.735 64.775 294.222 66.6633 294.222 68.68C294.222 70.6967 294.735 72.585 295.762 74.345C296.825 76.0683 298.237 77.4617 299.997 78.525C301.757 79.5517 303.645 80.065 305.662 80.065ZM331.469 81.605C329.709 81.605 328.15 81.3117 326.794 80.725C325.437 80.1017 324.465 79.3133 323.879 78.36V75.445C324.575 77.0217 325.529 78.195 326.739 78.965C327.949 79.6983 329.489 80.065 331.359 80.065C333.155 80.065 334.604 79.515 335.704 78.415C336.804 77.2783 337.354 75.83 337.354 74.07C337.354 72.5667 337.042 71.4117 336.419 70.605C335.795 69.7617 334.787 68.9183 333.394 68.075L331.304 66.865C329.8 65.9483 328.664 65.2333 327.894 64.72C327.16 64.17 326.574 63.565 326.134 62.905C325.694 62.2083 325.474 61.4017 325.474 60.485C325.474 59.0183 325.987 57.845 327.014 56.965C328.04 56.085 329.379 55.645 331.029 55.645C333.045 55.645 334.732 56.1033 336.089 57.02V59.44C334.952 57.9367 333.32 57.185 331.194 57.185C330.02 57.185 329.067 57.4783 328.334 58.065C327.6 58.6517 327.234 59.4033 327.234 60.32C327.234 61.1267 327.454 61.8417 327.894 62.465C328.334 63.0517 328.939 63.6017 329.709 64.115C330.515 64.6283 331.835 65.3983 333.669 66.425C335.539 67.4883 336.914 68.5883 337.794 69.725C338.674 70.825 339.114 72.2733 339.114 74.07C339.114 76.3433 338.362 78.1767 336.859 79.57C335.392 80.9267 333.595 81.605 331.469 81.605Z"/>
</mask>
<path d="M39.1601 39.75H40.9751C45.3018 39.75 48.6751 40.905 51.0951 43.215C53.5151 45.4883 54.7251 48.55 54.7251 52.4C54.7251 55.0767 54.1385 57.46 52.9651 59.55C51.7918 61.6033 50.1968 63.1983 48.1801 64.335C46.1635 65.435 43.9085 65.985 41.4151 65.985H40.9751V81H39.1601V39.75ZM41.5251 64.39C44.8618 64.39 47.5935 63.3633 49.7201 61.31C51.8468 59.22 52.9101 56.2867 52.9101 52.51C52.9101 48.9167 51.9018 46.1667 49.8851 44.26C47.9051 42.3167 45.0818 41.345 41.4151 41.345H40.9751V64.39H41.5251ZM60.1418 56.25H61.9018V61.97C62.6351 60.1733 63.6984 58.7617 65.0918 57.735C66.5218 56.7083 68.1351 56.195 69.9318 56.195C71.0684 56.195 72.2234 56.4333 73.3968 56.91V58.945C72.3334 58.1383 71.1418 57.735 69.8218 57.735C68.5018 57.735 67.2184 58.1383 65.9718 58.945C64.7618 59.7517 63.7718 60.8333 63.0018 62.19C62.2684 63.5467 61.9018 64.995 61.9018 66.535V81H60.1418V56.25ZM79.9039 50.585C79.3906 50.585 78.9323 50.4017 78.5289 50.035C78.1623 49.6683 77.9789 49.21 77.9789 48.66C77.9789 48.1467 78.1623 47.7067 78.5289 47.34C78.9323 46.9733 79.3906 46.79 79.9039 46.79C80.4173 46.79 80.8573 46.9733 81.2239 47.34C81.6273 47.7067 81.8289 48.1467 81.8289 48.66C81.8289 49.21 81.6273 49.6683 81.2239 50.035C80.8573 50.4017 80.4173 50.585 79.9039 50.585ZM79.0239 56.25H80.7839V81H79.0239V56.25ZM88.9845 56.25H90.7445V59.99C92.4312 57.0933 95.1445 55.645 98.8845 55.645C100.681 55.645 102.24 56.1583 103.56 57.185C104.88 58.175 105.796 59.6783 106.31 61.695C106.786 59.8983 107.831 58.45 109.445 57.35C111.095 56.2133 112.946 55.645 115 55.645C117.676 55.645 119.748 56.4333 121.215 58.01C122.681 59.55 123.415 61.75 123.415 64.61V81H121.655V64.61C121.655 62.3 121.05 60.485 119.84 59.165C118.666 57.845 117.108 57.185 115.165 57.185C113.698 57.185 112.341 57.5517 111.095 58.285C109.848 58.9817 108.858 59.935 108.125 61.145C107.391 62.355 107.025 63.6933 107.025 65.16V81H105.265V65.6C105.265 62.96 104.641 60.9067 103.395 59.44C102.148 57.9367 100.535 57.185 98.5545 57.185C97.2345 57.185 95.9695 57.515 94.7595 58.175C93.5862 58.835 92.6145 59.7333 91.8445 60.87C91.1112 61.97 90.7445 63.18 90.7445 64.5V81H88.9845V56.25ZM142.387 80.12C144.294 80.12 146.109 79.625 147.832 78.635C149.555 77.645 150.985 76.2883 152.122 74.565V77.37C150.765 78.8733 149.28 79.9733 147.667 80.67C146.054 81.33 144.22 81.66 142.167 81.66C139.894 81.66 137.749 81.055 135.732 79.845C133.752 78.635 132.157 77.0217 130.947 75.005C129.774 72.9883 129.187 70.8433 129.187 68.57C129.187 66.1133 129.774 63.9133 130.947 61.97C132.12 59.99 133.715 58.45 135.732 57.35C137.785 56.25 140.059 55.7 142.552 55.7C146.365 55.7 149.61 57.2033 152.287 60.21L135.017 77.26C136.227 78.25 137.4 78.9833 138.537 79.46C139.674 79.9 140.957 80.12 142.387 80.12ZM130.947 68.405C130.947 71.4483 131.955 74.0517 133.972 76.215L150.087 60.21C148.877 59.1467 147.704 58.395 146.567 57.955C145.43 57.4783 144.074 57.24 142.497 57.24C140.26 57.24 138.262 57.735 136.502 58.725C134.779 59.6783 133.422 60.9983 132.432 62.685C131.442 64.3717 130.947 66.2783 130.947 68.405ZM170.753 39.75H172.513C175.41 39.75 177.537 40.4283 178.893 41.785C180.25 43.105 180.928 45.0667 180.928 47.67C180.928 49.1733 180.488 50.6217 179.608 52.015C178.728 53.3717 177.665 54.2883 176.418 54.765C179.572 55.2783 182.01 56.5983 183.733 58.725C185.457 60.8517 186.318 63.6383 186.318 67.085C186.318 69.835 185.713 72.2733 184.503 74.4C183.293 76.49 181.625 78.1217 179.498 79.295C177.408 80.4317 175.08 81 172.513 81H170.753V39.75ZM172.953 54.27C174.713 54.27 176.198 53.6283 177.408 52.345C178.618 51.0617 179.223 49.485 179.223 47.615C179.223 45.525 178.71 43.9483 177.683 42.885C176.693 41.8217 175.117 41.29 172.953 41.29H172.513V54.27H172.953ZM172.953 79.46C175.117 79.46 177.078 78.9467 178.838 77.92C180.598 76.8567 181.992 75.39 183.018 73.52C184.045 71.65 184.558 69.5417 184.558 67.195C184.558 63.4183 183.55 60.5767 181.533 58.67C179.553 56.7267 176.693 55.755 172.953 55.755H172.513V79.46H172.953ZM204.101 80.12C206.007 80.12 207.822 79.625 209.546 78.635C211.269 77.645 212.699 76.2883 213.836 74.565V77.37C212.479 78.8733 210.994 79.9733 209.381 80.67C207.767 81.33 205.934 81.66 203.881 81.66C201.607 81.66 199.462 81.055 197.446 79.845C195.466 78.635 193.871 77.0217 192.661 75.005C191.487 72.9883 190.901 70.8433 190.901 68.57C190.901 66.1133 191.487 63.9133 192.661 61.97C193.834 59.99 195.429 58.45 197.446 57.35C199.499 56.25 201.772 55.7 204.266 55.7C208.079 55.7 211.324 57.2033 214.001 60.21L196.731 77.26C197.941 78.25 199.114 78.9833 200.251 79.46C201.387 79.9 202.671 80.12 204.101 80.12ZM192.661 68.405C192.661 71.4483 193.669 74.0517 195.686 76.215L211.801 60.21C210.591 59.1467 209.417 58.395 208.281 57.955C207.144 57.4783 205.787 57.24 204.211 57.24C201.974 57.24 199.976 57.735 198.216 58.725C196.492 59.6783 195.136 60.9983 194.146 62.685C193.156 64.3717 192.661 66.2783 192.661 68.405ZM232.482 81.605C230.245 81.605 228.082 81 225.992 79.79C223.939 78.58 222.362 76.985 221.262 75.005V81H219.502V39.75H221.262V62.52C222.252 60.43 223.792 58.7617 225.882 57.515C227.972 56.2683 230.172 55.645 232.482 55.645C234.865 55.645 237.047 56.2317 239.027 57.405C241.044 58.5783 242.639 60.155 243.812 62.135C244.985 64.115 245.572 66.2783 245.572 68.625C245.572 70.9717 244.985 73.135 243.812 75.115C242.639 77.095 241.044 78.6717 239.027 79.845C237.047 81.0183 234.865 81.605 232.482 81.605ZM232.592 80.065C234.609 80.065 236.479 79.5517 238.202 78.525C239.925 77.4617 241.282 76.0683 242.272 74.345C243.299 72.585 243.812 70.6783 243.812 68.625C243.812 66.6083 243.299 64.72 242.272 62.96C241.245 61.2 239.87 59.8067 238.147 58.78C236.424 57.7167 234.554 57.185 232.537 57.185C230.52 57.185 228.632 57.7167 226.872 58.78C225.149 59.8433 223.755 61.255 222.692 63.015C221.665 64.775 221.152 66.6633 221.152 68.68C221.152 70.6967 221.665 72.585 222.692 74.345C223.755 76.0683 225.167 77.4617 226.927 78.525C228.687 79.5517 230.575 80.065 232.592 80.065ZM253.229 50.585C252.716 50.585 252.257 50.4017 251.854 50.035C251.487 49.6683 251.304 49.21 251.304 48.66C251.304 48.1467 251.487 47.7067 251.854 47.34C252.257 46.9733 252.716 46.79 253.229 46.79C253.742 46.79 254.182 46.9733 254.549 47.34C254.952 47.7067 255.154 48.1467 255.154 48.66C255.154 49.21 254.952 49.6683 254.549 50.035C254.182 50.4017 253.742 50.585 253.229 50.585ZM252.349 56.25H254.109V81H252.349V56.25ZM273.97 81.605C271.586 81.605 269.386 81.0183 267.37 79.845C265.39 78.6717 263.813 77.095 262.64 75.115C261.466 73.135 260.88 70.9717 260.88 68.625C260.88 66.2783 261.466 64.115 262.64 62.135C263.813 60.155 265.39 58.5783 267.37 57.405C269.386 56.2317 271.586 55.645 273.97 55.645C276.28 55.645 278.48 56.2683 280.57 57.515C282.66 58.725 284.2 60.32 285.19 62.3V39.75H286.95V81H285.19V75.005C284.09 76.985 282.495 78.58 280.405 79.79C278.351 81 276.206 81.605 273.97 81.605ZM273.915 80.065C275.931 80.065 277.801 79.5517 279.525 78.525C281.285 77.4617 282.678 76.0683 283.705 74.345C284.768 72.585 285.3 70.6967 285.3 68.68C285.3 66.6633 284.768 64.775 283.705 63.015C282.678 61.255 281.285 59.8433 279.525 58.78C277.801 57.7167 275.931 57.185 273.915 57.185C271.898 57.185 270.028 57.7167 268.305 58.78C266.581 59.8067 265.206 61.2 264.18 62.96C263.153 64.72 262.64 66.6083 262.64 68.625C262.64 70.6783 263.135 72.585 264.125 74.345C265.151 76.0683 266.526 77.4617 268.25 78.525C270.01 79.5517 271.898 80.065 273.915 80.065ZM305.552 81.605C303.205 81.605 301.023 81.0183 299.007 79.845C296.99 78.6717 295.395 77.095 294.222 75.115C293.048 73.0983 292.462 70.935 292.462 68.625C292.462 66.315 293.048 64.17 294.222 62.19C295.395 60.1733 296.99 58.5783 299.007 57.405C301.023 56.2317 303.205 55.645 305.552 55.645C307.935 55.645 310.19 56.2867 312.317 57.57C314.443 58.8167 315.928 60.4483 316.772 62.465V56.25H318.532V81H316.772V74.84C315.782 76.8933 314.242 78.5433 312.152 79.79C310.098 81 307.898 81.605 305.552 81.605ZM305.662 80.065C307.678 80.065 309.548 79.5517 311.272 78.525C312.995 77.4617 314.352 76.0683 315.342 74.345C316.368 72.585 316.882 70.6783 316.882 68.625C316.882 66.6083 316.368 64.72 315.342 62.96C314.315 61.2 312.94 59.8067 311.217 58.78C309.493 57.7167 307.623 57.185 305.607 57.185C303.59 57.185 301.702 57.7167 299.942 58.78C298.218 59.8433 296.825 61.255 295.762 63.015C294.735 64.775 294.222 66.6633 294.222 68.68C294.222 70.6967 294.735 72.585 295.762 74.345C296.825 76.0683 298.237 77.4617 299.997 78.525C301.757 79.5517 303.645 80.065 305.662 80.065ZM331.469 81.605C329.709 81.605 328.15 81.3117 326.794 80.725C325.437 80.1017 324.465 79.3133 323.879 78.36V75.445C324.575 77.0217 325.529 78.195 326.739 78.965C327.949 79.6983 329.489 80.065 331.359 80.065C333.155 80.065 334.604 79.515 335.704 78.415C336.804 77.2783 337.354 75.83 337.354 74.07C337.354 72.5667 337.042 71.4117 336.419 70.605C335.795 69.7617 334.787 68.9183 333.394 68.075L331.304 66.865C329.8 65.9483 328.664 65.2333 327.894 64.72C327.16 64.17 326.574 63.565 326.134 62.905C325.694 62.2083 325.474 61.4017 325.474 60.485C325.474 59.0183 325.987 57.845 327.014 56.965C328.04 56.085 329.379 55.645 331.029 55.645C333.045 55.645 334.732 56.1033 336.089 57.02V59.44C334.952 57.9367 333.32 57.185 331.194 57.185C330.02 57.185 329.067 57.4783 328.334 58.065C327.6 58.6517 327.234 59.4033 327.234 60.32C327.234 61.1267 327.454 61.8417 327.894 62.465C328.334 63.0517 328.939 63.6017 329.709 64.115C330.515 64.6283 331.835 65.3983 333.669 66.425C335.539 67.4883 336.914 68.5883 337.794 69.725C338.674 70.825 339.114 72.2733 339.114 74.07C339.114 76.3433 338.362 78.1767 336.859 79.57C335.392 80.9267 333.595 81.605 331.469 81.605Z" fill="white"/>
<path d="M39.1601 39.75V37.75H37.1601V39.75H39.1601ZM51.0951 43.215L49.7142 44.6617L49.7199 44.6672L49.7258 44.6727L51.0951 43.215ZM52.9651 59.55L54.7016 60.5423L54.7054 60.5357L54.7091 60.5291L52.9651 59.55ZM48.1801 64.335L49.1378 66.0908L49.15 66.0841L49.1621 66.0773L48.1801 64.335ZM40.9751 65.985V63.985H38.9751V65.985H40.9751ZM40.9751 81V83H42.9751V81H40.9751ZM39.1601 81H37.1601V83H39.1601V81ZM49.7201 61.31L51.1093 62.7488L51.1157 62.7427L51.122 62.7365L49.7201 61.31ZM49.8851 44.26L48.4842 45.6874L48.4975 45.7005L48.5111 45.7133L49.8851 44.26ZM40.9751 41.345V39.345H38.9751V41.345H40.9751ZM40.9751 64.39H38.9751V66.39H40.9751V64.39ZM39.1601 41.75H40.9751V37.75H39.1601V41.75ZM40.9751 41.75C44.9438 41.75 47.7658 42.8019 49.7142 44.6617L52.4761 41.7683C49.5845 39.0081 45.6597 37.75 40.9751 37.75V41.75ZM49.7258 44.6727C51.6782 46.5068 52.7251 49.0059 52.7251 52.4H56.7251C56.7251 48.0941 55.352 44.4699 52.4645 41.7573L49.7258 44.6727ZM52.7251 52.4C52.7251 54.7746 52.2077 56.8136 51.2212 58.5709L54.7091 60.5291C56.0692 58.1063 56.7251 55.3787 56.7251 52.4H52.7251ZM51.2286 58.5577C50.2304 60.3046 48.8931 61.6373 47.1981 62.5927L49.1621 66.0773C51.5005 64.7593 53.3532 62.902 54.7016 60.5423L51.2286 58.5577ZM47.2224 62.5792C45.5242 63.5055 43.6031 63.985 41.4151 63.985V67.985C44.2138 67.985 46.8027 67.3645 49.1378 66.0908L47.2224 62.5792ZM41.4151 63.985H40.9751V67.985H41.4151V63.985ZM38.9751 65.985V81H42.9751V65.985H38.9751ZM40.9751 79H39.1601V83H40.9751V79ZM41.1601 81V39.75H37.1601V81H41.1601ZM41.5251 66.39C45.3077 66.39 48.5608 65.2094 51.1093 62.7488L48.3309 59.8712C46.6261 61.5172 44.4159 62.39 41.5251 62.39V66.39ZM51.122 62.7365C53.7269 60.1765 54.9101 56.6723 54.9101 52.51H50.9101C50.9101 55.901 49.9667 58.2635 48.3183 59.8835L51.122 62.7365ZM54.9101 52.51C54.9101 48.5375 53.7845 45.1943 51.2591 42.8067L48.5111 45.7133C50.0191 47.1391 50.9101 49.2959 50.9101 52.51H54.9101ZM51.2861 42.8326C48.8239 40.4161 45.4316 39.345 41.4151 39.345V43.345C44.732 43.345 46.9863 44.2172 48.4842 45.6874L51.2861 42.8326ZM41.4151 39.345H40.9751V43.345H41.4151V39.345ZM38.9751 41.345V64.39H42.9751V41.345H38.9751ZM40.9751 66.39H41.5251V62.39H40.9751V66.39ZM60.1418 56.25V54.25H58.1418V56.25H60.1418ZM61.9018 56.25H63.9018V54.25H61.9018V56.25ZM61.9018 61.97H59.9018L63.7535 62.7258L61.9018 61.97ZM65.0918 57.735L63.9253 56.1104L63.9153 56.1176L63.9054 56.1249L65.0918 57.735ZM73.3968 56.91H75.3968V55.5638L74.1495 55.0571L73.3968 56.91ZM73.3968 58.945L72.188 60.5384L75.3968 62.9726V58.945H73.3968ZM65.9718 58.945L64.8853 57.2659L64.8738 57.2733L64.8624 57.2809L65.9718 58.945ZM63.0018 62.19L61.2624 61.2028L61.2522 61.2208L61.2423 61.239L63.0018 62.19ZM61.9018 81V83H63.9018V81H61.9018ZM60.1418 81H58.1418V83H60.1418V81ZM60.1418 58.25H61.9018V54.25H60.1418V58.25ZM59.9018 56.25V61.97H63.9018V56.25H59.9018ZM63.7535 62.7258C64.3651 61.2273 65.2157 60.1279 66.2782 59.3451L63.9054 56.1249C62.1811 57.3954 60.9051 59.1194 60.0501 61.2142L63.7535 62.7258ZM66.2582 59.3596C67.3408 58.5824 68.5443 58.195 69.9318 58.195V54.195C67.7258 54.195 65.7027 54.8343 63.9253 56.1104L66.2582 59.3596ZM69.9318 58.195C70.7825 58.195 71.6825 58.3723 72.644 58.7629L74.1495 55.0571C72.7644 54.4944 71.3544 54.195 69.9318 54.195V58.195ZM71.3968 56.91V58.945H75.3968V56.91H71.3968ZM74.6055 57.3516C73.1986 56.2843 71.5835 55.735 69.8218 55.735V59.735C70.7 59.735 71.4682 59.9924 72.188 60.5384L74.6055 57.3516ZM69.8218 55.735C68.0694 55.735 66.4139 56.2767 64.8853 57.2659L67.0583 60.6241C68.023 59.9999 68.9341 59.735 69.8218 59.735V55.735ZM64.8624 57.2809C63.3737 58.2733 62.1751 59.5946 61.2624 61.2028L64.7411 63.1772C65.3684 62.0721 66.1498 61.23 67.0812 60.6091L64.8624 57.2809ZM61.2423 61.239C60.3513 62.8873 59.9018 64.6624 59.9018 66.535H63.9018C63.9018 65.3276 64.1855 64.206 64.7612 63.141L61.2423 61.239ZM59.9018 66.535V81H63.9018V66.535H59.9018ZM61.9018 79H60.1418V83H61.9018V79ZM62.1418 81V56.25H58.1418V81H62.1418ZM78.5289 50.035L77.1147 51.4492L77.1484 51.4829L77.1836 51.5149L78.5289 50.035ZM78.5289 47.34L77.1836 45.8601L77.1484 45.8921L77.1147 45.9258L78.5289 47.34ZM81.2239 47.34L79.8097 48.7542L79.8434 48.7879L79.8786 48.8199L81.2239 47.34ZM81.2239 50.035L79.8786 48.5551L79.8434 48.5871L79.8097 48.6208L81.2239 50.035ZM79.0239 56.25V54.25H77.0239V56.25H79.0239ZM80.7839 56.25H82.7839V54.25H80.7839V56.25ZM80.7839 81V83H82.7839V81H80.7839ZM79.0239 81H77.0239V83H79.0239V81ZM79.9039 48.585C79.8953 48.585 79.8947 48.5843 79.9001 48.5853C79.9056 48.5863 79.9122 48.5882 79.918 48.5905C79.9236 48.5928 79.9238 48.5936 79.9178 48.5898C79.9116 48.5858 79.8969 48.5756 79.8743 48.5551L77.1836 51.5149C77.9302 52.1936 78.8604 52.585 79.9039 52.585V48.585ZM79.9432 48.6208C79.9404 48.618 79.9448 48.622 79.9524 48.6334C79.9601 48.645 79.9676 48.6589 79.9734 48.6735C79.9761 48.6803 79.9781 48.6862 79.9793 48.6906C79.98 48.6928 79.9804 48.6945 79.9807 48.6957C79.981 48.6969 79.9811 48.6976 79.9811 48.6975C79.9811 48.6975 79.9809 48.6968 79.9807 48.6954C79.9805 48.6939 79.9803 48.6917 79.98 48.6887C79.9795 48.6826 79.9789 48.6732 79.9789 48.66H75.9789C75.9789 49.7047 76.3485 50.683 77.1147 51.4492L79.9432 48.6208ZM79.9789 48.66C79.9789 48.6512 79.9797 48.6542 79.9773 48.6664C79.9749 48.679 79.9703 48.6958 79.9626 48.7142C79.9549 48.7326 79.9467 48.7467 79.9408 48.7554C79.935 48.7638 79.9343 48.7631 79.9432 48.7542L77.1147 45.9258C76.3773 46.6632 75.9789 47.6102 75.9789 48.66H79.9789ZM79.8743 48.8199C79.8969 48.7994 79.9116 48.7892 79.9178 48.7852C79.9238 48.7814 79.9236 48.7822 79.918 48.7845C79.9122 48.7868 79.9056 48.7887 79.9001 48.7897C79.8947 48.7907 79.8953 48.79 79.9039 48.79V44.79C78.8604 44.79 77.9302 45.1814 77.1836 45.8601L79.8743 48.8199ZM79.9039 48.79C79.9128 48.79 79.9097 48.7907 79.8975 48.7884C79.8849 48.786 79.8682 48.7813 79.8497 48.7737C79.8313 48.766 79.8172 48.7578 79.8085 48.7518C79.8001 48.7461 79.8008 48.7453 79.8097 48.7542L82.6382 45.9258C81.9007 45.1883 80.9537 44.79 79.9039 44.79V48.79ZM79.8786 48.8199C79.9058 48.8446 79.8845 48.8326 79.8596 48.7783C79.848 48.7532 79.8396 48.727 79.8344 48.7027C79.8294 48.6787 79.8289 48.6634 79.8289 48.66H83.8289C83.8289 47.5451 83.3605 46.5794 82.5693 45.8601L79.8786 48.8199ZM79.8289 48.66C79.8289 48.6749 79.8276 48.6748 79.83 48.6631C79.8324 48.6509 79.8376 48.6323 79.8471 48.6108C79.8566 48.5892 79.8672 48.5719 79.8758 48.5601C79.8842 48.5487 79.887 48.5475 79.8786 48.5551L82.5693 51.5149C83.3938 50.7653 83.8289 49.7677 83.8289 48.66H79.8289ZM79.8097 48.6208C79.8008 48.6297 79.8001 48.6289 79.8085 48.6232C79.8172 48.6172 79.8313 48.609 79.8497 48.6013C79.8682 48.5937 79.8849 48.589 79.8975 48.5866C79.9097 48.5843 79.9128 48.585 79.9039 48.585V52.585C80.9537 52.585 81.9007 52.1867 82.6382 51.4492L79.8097 48.6208ZM79.0239 58.25H80.7839V54.25H79.0239V58.25ZM78.7839 56.25V81H82.7839V56.25H78.7839ZM80.7839 79H79.0239V83H80.7839V79ZM81.0239 81V56.25H77.0239V81H81.0239ZM88.9845 56.25V54.25H86.9845V56.25H88.9845ZM90.7445 56.25H92.7445V54.25H90.7445V56.25ZM90.7445 59.99H88.7445V67.3994L92.4729 60.9964L90.7445 59.99ZM103.56 57.185L102.332 58.7637L102.345 58.7745L102.36 58.785L103.56 57.185ZM106.31 61.695L104.371 62.1884L106.269 69.6453L108.243 62.2079L106.31 61.695ZM109.445 57.35L110.571 59.0025L110.579 58.997L109.445 57.35ZM121.215 58.01L119.75 59.3722L119.758 59.3808L119.766 59.3893L121.215 58.01ZM123.415 81V83H125.415V81H123.415ZM121.655 81H119.655V83H121.655V81ZM119.84 59.165L118.345 60.4937L118.355 60.5052L118.365 60.5164L119.84 59.165ZM111.095 58.285L112.07 60.0309L112.09 60.0201L112.109 60.0089L111.095 58.285ZM108.125 61.145L106.414 60.1084L108.125 61.145ZM107.025 81V83H109.025V81H107.025ZM105.265 81H103.265V83H105.265V81ZM103.395 59.44L101.855 60.7167L101.863 60.726L101.871 60.7353L103.395 59.44ZM94.7595 58.175L93.8018 56.4192L93.7904 56.4255L93.779 56.4318L94.7595 58.175ZM91.8445 60.87L90.1887 59.7483L90.1845 59.7544L90.1804 59.7606L91.8445 60.87ZM90.7445 81V83H92.7445V81H90.7445ZM88.9845 81H86.9845V83H88.9845V81ZM88.9845 58.25H90.7445V54.25H88.9845V58.25ZM88.7445 56.25V59.99H92.7445V56.25H88.7445ZM92.4729 60.9964C93.754 58.7962 95.7571 57.645 98.8845 57.645V53.645C94.532 53.645 91.1084 55.3905 89.0162 58.9836L92.4729 60.9964ZM98.8845 57.645C100.272 57.645 101.39 58.031 102.332 58.7637L104.787 55.6063C103.089 54.2857 101.091 53.645 98.8845 53.645V57.645ZM102.36 58.785C103.228 59.4361 103.941 60.496 104.371 62.1884L108.248 61.2016C107.652 58.8606 106.531 56.9139 104.76 55.585L102.36 58.785ZM108.243 62.2079C108.59 60.9005 109.333 59.8467 110.571 59.0025L108.318 55.6975C106.329 57.0533 104.983 58.8962 104.376 61.1821L108.243 62.2079ZM110.579 58.997C111.887 58.0962 113.341 57.645 115 57.645V53.645C112.552 53.645 110.302 54.3304 108.31 55.703L110.579 58.997ZM115 57.645C117.265 57.645 118.75 58.2972 119.75 59.3722L122.679 56.6478C120.746 54.5694 118.087 53.645 115 53.645V57.645ZM119.766 59.3893C120.771 60.4443 121.415 62.0825 121.415 64.61H125.415C125.415 61.4175 124.591 58.6557 122.663 56.6307L119.766 59.3893ZM121.415 64.61V81H125.415V64.61H121.415ZM123.415 79H121.655V83H123.415V79ZM123.655 81V64.61H119.655V81H123.655ZM123.655 64.61C123.655 61.9493 122.951 59.5996 121.314 57.8135L118.365 60.5164C119.148 61.3704 119.655 62.6507 119.655 64.61H123.655ZM121.334 57.8363C119.741 56.0435 117.615 55.185 115.165 55.185V59.185C116.601 59.185 117.592 59.6465 118.345 60.4937L121.334 57.8363ZM115.165 55.185C113.347 55.185 111.639 55.6444 110.08 56.5611L112.109 60.0089C113.043 59.459 114.049 59.185 115.165 59.185V55.185ZM110.119 56.5391C108.573 57.403 107.329 58.5995 106.414 60.1084L109.835 62.1816C110.387 61.2705 111.123 60.5604 112.07 60.0309L110.119 56.5391ZM106.414 60.1084C105.484 61.6428 105.025 63.3419 105.025 65.16H109.025C109.025 64.0448 109.298 63.0672 109.835 62.1816L106.414 60.1084ZM105.025 65.16V81H109.025V65.16H105.025ZM107.025 79H105.265V83H107.025V79ZM107.265 81V65.6H103.265V81H107.265ZM107.265 65.6C107.265 62.6615 106.57 60.0877 104.918 58.1447L101.871 60.7353C102.712 61.7257 103.265 63.2585 103.265 65.6H107.265ZM104.934 58.1633C103.301 56.1945 101.12 55.185 98.5545 55.185V59.185C99.9488 59.185 100.994 59.6788 101.855 60.7167L104.934 58.1633ZM98.5545 55.185C96.8849 55.185 95.2922 55.6063 93.8018 56.4192L95.7172 59.9308C96.6469 59.4237 97.5842 59.185 98.5545 59.185V55.185ZM93.779 56.4318C92.3299 57.2469 91.129 58.3602 90.1887 59.7483L93.5004 61.9917C94.1001 61.1064 94.8425 60.423 95.7401 59.9181L93.779 56.4318ZM90.1804 59.7606C89.2284 61.1886 88.7445 62.7845 88.7445 64.5H92.7445C92.7445 63.5755 92.994 62.7514 93.5086 61.9794L90.1804 59.7606ZM88.7445 64.5V81H92.7445V64.5H88.7445ZM90.7445 79H88.9845V83H90.7445V79ZM90.9845 81V56.25H86.9845V81H90.9845ZM147.832 78.635L146.836 76.9008H146.836L147.832 78.635ZM152.122 74.565H154.122V67.9003L150.452 73.4638L152.122 74.565ZM152.122 77.37L153.607 78.7099L154.122 78.139V77.37H152.122ZM147.667 80.67L148.424 82.5211L148.442 82.5138L148.46 82.5061L147.667 80.67ZM135.732 79.845L134.689 81.5516L134.696 81.5558L134.703 81.56L135.732 79.845ZM130.947 75.005L129.218 76.0108L129.225 76.0224L129.232 76.034L130.947 75.005ZM130.947 61.97L132.659 63.0037L132.663 62.9967L132.668 62.9896L130.947 61.97ZM135.732 57.35L134.788 55.587L134.781 55.5906L134.774 55.5942L135.732 57.35ZM152.287 60.21L153.692 61.6332L155.044 60.2988L153.781 58.8801L152.287 60.21ZM135.017 77.26L133.612 75.8368L132.029 77.3994L133.75 78.8079L135.017 77.26ZM138.537 79.46L137.764 81.3044L137.789 81.3151L137.815 81.3251L138.537 79.46ZM133.972 76.215L132.509 77.5788L133.917 79.0887L135.381 77.634L133.972 76.215ZM150.087 60.21L151.496 61.629L153.015 60.1207L151.407 58.7077L150.087 60.21ZM146.567 57.955L145.794 59.7994L145.819 59.8101L145.845 59.8201L146.567 57.955ZM136.502 58.725L137.47 60.4751L137.476 60.4716L137.482 60.4682L136.502 58.725ZM142.387 82.12C144.658 82.12 146.815 81.5257 148.828 80.3692L146.836 76.9008C145.402 77.7243 143.929 78.12 142.387 78.12V82.12ZM148.828 80.3692C150.833 79.2176 152.49 77.6398 153.791 75.6662L150.452 73.4638C149.481 74.9369 148.278 76.0724 146.836 76.9008L148.828 80.3692ZM150.122 74.565V77.37H154.122V74.565H150.122ZM150.637 76.0301C149.444 77.3526 148.187 78.2671 146.874 78.8339L148.46 82.5061C150.374 81.6796 152.087 80.3941 153.607 78.7099L150.637 76.0301ZM146.91 78.8189C145.575 79.3647 144.006 79.66 142.167 79.66V83.66C144.435 83.66 146.532 83.2953 148.424 82.5211L146.91 78.8189ZM142.167 79.66C140.269 79.66 138.478 79.1603 136.761 78.13L134.703 81.56C137.019 82.9497 139.518 83.66 142.167 83.66V79.66ZM136.775 78.1384C135.074 77.0991 133.708 75.7198 132.662 73.976L129.232 76.034C130.606 78.3235 132.43 80.1709 134.689 81.5516L136.775 78.1384ZM132.676 73.9992C131.675 72.2795 131.187 70.4804 131.187 68.57H127.187C127.187 71.2063 127.872 73.6971 129.218 76.0108L132.676 73.9992ZM131.187 68.57C131.187 66.4467 131.689 64.6096 132.659 63.0037L129.235 60.9363C127.858 63.2171 127.187 65.78 127.187 68.57H131.187ZM132.668 62.9896C133.658 61.3185 134.99 60.0331 136.69 59.1058L134.774 55.5942C132.441 56.8669 130.583 58.6615 129.226 60.9504L132.668 62.9896ZM136.676 59.113C138.419 58.1795 140.364 57.7 142.552 57.7V53.7C139.753 53.7 137.152 54.3205 134.788 55.587L136.676 59.113ZM142.552 57.7C145.76 57.7 148.472 58.9326 150.793 61.5399L153.781 58.8801C150.749 55.474 146.971 53.7 142.552 53.7V57.7ZM150.882 58.7867L133.612 75.8368L136.422 78.6833L153.692 61.6332L150.882 58.7867ZM133.75 78.8079C135.072 79.8889 136.409 80.7363 137.764 81.3044L139.31 77.6156C138.392 77.2304 137.382 76.6111 136.283 75.7121L133.75 78.8079ZM137.815 81.3251C139.218 81.8683 140.752 82.12 142.387 82.12V78.12C141.162 78.12 140.129 77.9317 139.259 77.5949L137.815 81.3251ZM128.947 68.405C128.947 71.9382 130.136 75.0335 132.509 77.5788L135.435 74.8512C133.774 73.0699 132.947 70.9584 132.947 68.405H128.947ZM135.381 77.634L151.496 61.629L148.678 58.791L132.563 74.796L135.381 77.634ZM151.407 58.7077C150.074 57.5362 148.703 56.6371 147.289 56.0899L145.845 59.8201C146.705 60.1529 147.68 60.7571 148.767 61.7123L151.407 58.7077ZM147.34 56.1106C145.901 55.5069 144.268 55.24 142.497 55.24V59.24C143.879 59.24 144.96 59.4498 145.794 59.7994L147.34 56.1106ZM142.497 55.24C139.955 55.24 137.612 55.8058 135.521 56.9818L137.482 60.4682C138.912 59.6642 140.566 59.24 142.497 59.24V55.24ZM135.534 56.9749C133.499 58.1006 131.88 59.6744 130.707 61.6726L134.157 63.6974C134.964 62.3223 136.058 61.2561 137.47 60.4751L135.534 56.9749ZM130.707 61.6726C129.521 63.6928 128.947 65.9545 128.947 68.405H132.947C132.947 66.6022 133.363 65.0505 134.157 63.6974L130.707 61.6726ZM170.753 39.75V37.75H168.753V39.75H170.753ZM178.893 41.785L177.479 43.1992L177.489 43.2089L177.498 43.2184L178.893 41.785ZM179.608 52.015L181.286 53.1034L181.293 53.0932L181.299 53.083L179.608 52.015ZM176.418 54.765L175.704 52.8969L168.773 55.5468L176.097 56.739L176.418 54.765ZM183.733 58.725L185.287 57.4658L183.733 58.725ZM184.503 74.4L186.234 75.4021L186.238 75.3956L186.242 75.389L184.503 74.4ZM179.498 79.295L180.454 81.052L180.464 81.0462L179.498 79.295ZM170.753 81H168.753V83H170.753V81ZM177.408 52.345L178.863 53.717L177.408 52.345ZM177.683 42.885L176.219 44.2478L176.232 44.2611L176.244 44.2742L177.683 42.885ZM172.513 41.29V39.29H170.513V41.29H172.513ZM172.513 54.27H170.513V56.27H172.513V54.27ZM178.838 77.92L179.846 79.6476L179.859 79.6398L179.872 79.6318L178.838 77.92ZM183.018 73.52L181.265 72.5575L183.018 73.52ZM181.533 58.67L180.132 60.0974L180.146 60.1105L180.159 60.1233L181.533 58.67ZM172.513 55.755V53.755H170.513V55.755H172.513ZM172.513 79.46H170.513V81.46H172.513V79.46ZM170.753 41.75H172.513V37.75H170.753V41.75ZM172.513 41.75C175.146 41.75 176.651 42.3714 177.479 43.1992L180.307 40.3708C178.422 38.4853 175.674 37.75 172.513 37.75V41.75ZM177.498 43.2184C178.341 44.0381 178.928 45.3987 178.928 47.67H182.928C182.928 44.7347 182.159 42.1719 180.288 40.3515L177.498 43.2184ZM178.928 47.67C178.928 48.7593 178.615 49.8414 177.917 50.947L181.299 53.083C182.361 51.4019 182.928 49.5874 182.928 47.67H178.928ZM177.93 50.9266C177.231 52.0047 176.477 52.6012 175.704 52.8969L177.132 56.6331C178.853 55.9754 180.225 54.7386 181.286 53.1034L177.93 50.9266ZM176.097 56.739C178.852 57.1874 180.816 58.3017 182.179 59.9842L185.287 57.4658C183.204 54.895 180.292 53.3692 176.74 52.791L176.097 56.739ZM182.179 59.9842C183.546 61.6705 184.318 63.9753 184.318 67.085H188.318C188.318 63.3014 187.367 60.0328 185.287 57.4658L182.179 59.9842ZM184.318 67.085C184.318 69.532 183.783 71.6216 182.765 73.4109L186.242 75.389C187.643 72.925 188.318 70.138 188.318 67.085H184.318ZM182.772 73.3979C181.746 75.1715 180.342 76.545 178.532 77.5438L180.464 81.0462C182.907 79.6983 184.841 77.8085 186.234 75.4021L182.772 73.3979ZM178.543 77.538C176.769 78.5028 174.773 79 172.513 79V83C175.387 83 178.048 82.3606 180.454 81.052L178.543 77.538ZM172.513 79H170.753V83H172.513V79ZM172.753 81V39.75H168.753V81H172.753ZM172.953 56.27C175.265 56.27 177.276 55.4002 178.863 53.717L175.953 50.973C175.12 51.8565 174.161 52.27 172.953 52.27V56.27ZM178.863 53.717C180.446 52.0387 181.223 49.9613 181.223 47.615H177.223C177.223 49.0087 176.791 50.0846 175.953 50.973L178.863 53.717ZM181.223 47.615C181.223 45.2225 180.635 43.0628 179.122 41.4958L176.244 44.2742C176.785 44.8339 177.223 45.8275 177.223 47.615H181.223ZM179.147 41.5222C177.626 39.8889 175.4 39.29 172.953 39.29V43.29C174.833 43.29 175.76 43.7545 176.219 44.2478L179.147 41.5222ZM172.953 39.29H172.513V43.29H172.953V39.29ZM170.513 41.29V54.27H174.513V41.29H170.513ZM172.513 56.27H172.953V52.27H172.513V56.27ZM172.953 81.46C175.448 81.46 177.761 80.8637 179.846 79.6476L177.83 76.1924C176.395 77.0296 174.785 77.46 172.953 77.46V81.46ZM179.872 79.6318C181.945 78.3794 183.582 76.6492 184.771 74.4825L181.265 72.5575C180.401 74.1308 179.251 75.3339 177.804 76.2082L179.872 79.6318ZM184.771 74.4825C185.976 72.2888 186.558 69.8437 186.558 67.195H182.558C182.558 69.2396 182.114 71.0112 181.265 72.5575L184.771 74.4825ZM186.558 67.195C186.558 63.0737 185.451 59.6222 182.907 57.2167L180.159 60.1233C181.648 61.5312 182.558 63.7629 182.558 67.195H186.558ZM182.934 57.2426C180.465 54.8193 177.03 53.755 172.953 53.755V57.755C176.356 57.755 178.641 58.6341 180.132 60.0974L182.934 57.2426ZM172.953 53.755H172.513V57.755H172.953V53.755ZM170.513 55.755V79.46H174.513V55.755H170.513ZM172.513 81.46H172.953V77.46H172.513V81.46ZM209.546 78.635L208.55 76.9008L209.546 78.635ZM213.836 74.565H215.836V67.9003L212.166 73.4638L213.836 74.565ZM213.836 77.37L215.321 78.7099L215.836 78.139V77.37H213.836ZM209.381 80.67L210.138 82.5211L210.156 82.5138L210.174 82.5061L209.381 80.67ZM197.446 79.845L196.403 81.5516L196.41 81.5558L196.417 81.56L197.446 79.845ZM192.661 75.005L190.932 76.0108L190.939 76.0224L190.946 76.034L192.661 75.005ZM192.661 61.97L194.373 63.0037L194.377 62.9967L194.381 62.9896L192.661 61.97ZM197.446 57.35L196.501 55.587L196.495 55.5906L196.488 55.5942L197.446 57.35ZM214.001 60.21L215.406 61.6332L216.758 60.2988L215.495 58.8801L214.001 60.21ZM196.731 77.26L195.326 75.8368L193.743 77.3994L195.464 78.8079L196.731 77.26ZM200.251 79.46L199.477 81.3044L199.503 81.3151L199.529 81.3251L200.251 79.46ZM195.686 76.215L194.223 77.5788L195.63 79.0887L197.095 77.634L195.686 76.215ZM211.801 60.21L213.21 61.629L214.729 60.1207L213.121 58.7077L211.801 60.21ZM208.281 57.955L207.507 59.7994L207.533 59.8101L207.559 59.8201L208.281 57.955ZM198.216 58.725L199.184 60.4751L199.19 60.4716L199.196 60.4682L198.216 58.725ZM204.101 82.12C206.372 82.12 208.529 81.5257 210.542 80.3692L208.55 76.9008C207.116 77.7243 205.643 78.12 204.101 78.12V82.12ZM210.542 80.3692C212.547 79.2176 214.204 77.6398 215.505 75.6662L212.166 73.4638C211.195 74.9369 209.992 76.0724 208.55 76.9008L210.542 80.3692ZM211.836 74.565V77.37H215.836V74.565H211.836ZM212.351 76.0301C211.158 77.3526 209.9 78.2671 208.588 78.8339L210.174 82.5061C212.088 81.6796 213.801 80.3941 215.321 78.7099L212.351 76.0301ZM208.624 78.8189C207.289 79.3647 205.72 79.66 203.881 79.66V83.66C206.148 83.66 208.246 83.2953 210.138 82.5211L208.624 78.8189ZM203.881 79.66C201.983 79.66 200.192 79.1603 198.475 78.13L196.417 81.56C198.733 82.9497 201.232 83.66 203.881 83.66V79.66ZM198.489 78.1384C196.788 77.0991 195.422 75.7198 194.376 73.976L190.946 76.034C192.32 78.3235 194.144 80.1709 196.403 81.5516L198.489 78.1384ZM194.39 73.9992C193.389 72.2795 192.901 70.4804 192.901 68.57H188.901C188.901 71.2063 189.586 73.6971 190.932 76.0108L194.39 73.9992ZM192.901 68.57C192.901 66.4467 193.403 64.6096 194.373 63.0037L190.949 60.9363C189.572 63.2171 188.901 65.78 188.901 68.57H192.901ZM194.381 62.9896C195.372 61.3185 196.703 60.0331 198.404 59.1058L196.488 55.5942C194.155 56.8669 192.297 58.6615 190.94 60.9504L194.381 62.9896ZM198.39 59.113C200.133 58.1795 202.078 57.7 204.266 57.7V53.7C201.467 53.7 198.866 54.3205 196.501 55.587L198.39 59.113ZM204.266 57.7C207.473 57.7 210.186 58.9326 212.507 61.5399L215.495 58.8801C212.462 55.474 208.685 53.7 204.266 53.7V57.7ZM212.596 58.7867L195.326 75.8368L198.136 78.6833L215.406 61.6332L212.596 58.7867ZM195.464 78.8079C196.786 79.8889 198.123 80.7363 199.477 81.3044L201.024 77.6156C200.106 77.2304 199.096 76.6111 197.997 75.7121L195.464 78.8079ZM199.529 81.3251C200.932 81.8683 202.466 82.12 204.101 82.12V78.12C202.876 78.12 201.843 77.9317 200.973 77.5949L199.529 81.3251ZM190.661 68.405C190.661 71.9382 191.85 75.0335 194.223 77.5788L197.149 74.8512C195.488 73.0699 194.661 70.9584 194.661 68.405H190.661ZM197.095 77.634L213.21 61.629L210.391 58.791L194.276 74.796L197.095 77.634ZM213.121 58.7077C211.788 57.5362 210.416 56.6371 209.003 56.0899L207.559 59.8201C208.418 60.1529 209.394 60.7571 210.481 61.7123L213.121 58.7077ZM209.054 56.1106C207.615 55.5069 205.982 55.24 204.211 55.24V59.24C205.593 59.24 206.674 59.4498 207.507 59.7994L209.054 56.1106ZM204.211 55.24C201.668 55.24 199.326 55.8058 197.235 56.9818L199.196 60.4682C200.626 59.6642 202.28 59.24 204.211 59.24V55.24ZM197.248 56.9749C195.213 58.1006 193.594 59.6744 192.421 61.6726L195.871 63.6974C196.678 62.3223 197.772 61.2561 199.184 60.4751L197.248 56.9749ZM192.421 61.6726C191.235 63.6928 190.661 65.9545 190.661 68.405H194.661C194.661 66.6022 195.076 65.0505 195.871 63.6974L192.421 61.6726ZM225.992 79.79L224.977 81.5131L224.983 81.517L224.99 81.5209L225.992 79.79ZM221.262 75.005L223.01 74.0337L219.262 67.2867V75.005H221.262ZM221.262 81V83H223.262V81H221.262ZM219.502 81H217.502V83H219.502V81ZM219.502 39.75V37.75H217.502V39.75H219.502ZM221.262 39.75H223.262V37.75H221.262V39.75ZM221.262 62.52H219.262L223.07 63.3762L221.262 62.52ZM225.882 57.515L224.858 55.7974L225.882 57.515ZM239.027 57.405L238.008 59.1256L238.014 59.1297L238.021 59.1337L239.027 57.405ZM243.812 62.135L242.092 63.1546L243.812 62.135ZM243.812 75.115L242.092 74.0954L243.812 75.115ZM239.027 79.845L238.021 78.1163L238.014 78.1203L238.008 78.1244L239.027 79.845ZM238.202 78.525L239.226 80.2432L239.239 80.2352L239.252 80.2271L238.202 78.525ZM242.272 74.345L240.545 73.3372L240.538 73.3488L242.272 74.345ZM242.272 62.96L244 61.9523L242.272 62.96ZM238.147 58.78L237.097 60.4821L237.11 60.4902L237.124 60.4982L238.147 58.78ZM226.872 58.78L225.838 57.0682L225.83 57.073L225.822 57.0779L226.872 58.78ZM222.692 63.015L220.98 61.9808L220.972 61.9939L220.965 62.0073L222.692 63.015ZM222.692 74.345L220.965 75.3527L220.977 75.3741L220.99 75.3952L222.692 74.345ZM226.927 78.525L225.893 80.2368L225.906 80.2448L225.919 80.2526L226.927 78.525ZM232.482 79.605C230.625 79.605 228.805 79.1074 226.994 78.0591L224.99 81.5209C227.359 82.8926 229.866 83.605 232.482 83.605V79.605ZM227.007 78.0669C225.244 77.0279 223.928 75.6858 223.01 74.0337L219.514 75.9763C220.796 78.2842 222.633 80.1321 224.977 81.5131L227.007 78.0669ZM219.262 75.005V81H223.262V75.005H219.262ZM221.262 79H219.502V83H221.262V79ZM221.502 81V39.75H217.502V81H221.502ZM219.502 41.75H221.262V37.75H219.502V41.75ZM219.262 39.75V62.52H223.262V39.75H219.262ZM223.07 63.3762C223.881 61.6639 225.138 60.2873 226.907 59.2326L224.858 55.7974C222.446 57.236 220.624 59.1961 219.455 61.6638L223.07 63.3762ZM226.907 59.2326C228.704 58.1605 230.552 57.645 232.482 57.645V53.645C229.792 53.645 227.24 54.3762 224.858 55.7974L226.907 59.2326ZM232.482 57.645C234.52 57.645 236.347 58.1418 238.008 59.1256L240.047 55.6844C237.747 54.3215 235.211 53.645 232.482 53.645V57.645ZM238.021 59.1337C239.747 60.138 241.095 61.4722 242.092 63.1546L245.533 61.1154C244.183 58.8378 242.34 57.0187 240.033 55.6763L238.021 59.1337ZM242.092 63.1546C243.078 64.8197 243.572 66.6297 243.572 68.625H247.572C247.572 65.9269 246.893 63.4103 245.533 61.1154L242.092 63.1546ZM243.572 68.625C243.572 70.6203 243.078 72.4303 242.092 74.0954L245.533 76.1346C246.893 73.8397 247.572 71.3231 247.572 68.625H243.572ZM242.092 74.0954C241.095 75.7778 239.747 77.112 238.021 78.1163L240.033 81.5737C242.34 80.2313 244.183 78.4122 245.533 76.1346L242.092 74.0954ZM238.008 78.1244C236.347 79.1082 234.52 79.605 232.482 79.605V83.605C235.211 83.605 237.747 82.9285 240.047 81.5656L238.008 78.1244ZM232.592 82.065C234.967 82.065 237.191 81.4553 239.226 80.2432L237.178 76.8068C235.766 77.648 234.25 78.065 232.592 78.065V82.065ZM239.252 80.2271C241.253 78.9925 242.847 77.3587 244.006 75.3412L240.538 73.3488C239.717 74.7779 238.598 75.9309 237.152 76.8229L239.252 80.2271ZM244 75.3527C245.206 73.2844 245.812 71.0296 245.812 68.625H241.812C241.812 70.3271 241.391 71.8856 240.545 73.3373L244 75.3527ZM245.812 68.625C245.812 66.2504 245.203 64.0148 244 61.9523L240.545 63.9677C241.395 65.4252 241.812 66.9663 241.812 68.625H245.812ZM244 61.9523C242.805 59.9045 241.19 58.2647 239.171 57.0618L237.124 60.4982C238.551 61.3487 239.686 62.4955 240.545 63.9677L244 61.9523ZM239.197 57.0779C237.16 55.8207 234.926 55.185 232.537 55.185V59.185C234.181 59.185 235.688 59.6127 237.097 60.4821L239.197 57.0779ZM232.537 55.185C230.148 55.185 227.903 55.8202 225.838 57.0682L227.906 60.4918C229.361 59.6131 230.892 59.185 232.537 59.185V55.185ZM225.822 57.0779C223.824 58.3108 222.205 59.9531 220.98 61.9808L224.404 64.0492C225.306 62.5569 226.474 61.3759 227.922 60.4821L225.822 57.0779ZM220.965 62.0073C219.761 64.0698 219.152 66.3054 219.152 68.68H223.152C223.152 67.0213 223.569 65.4802 224.42 64.0227L220.965 62.0073ZM219.152 68.68C219.152 71.0546 219.761 73.2902 220.965 75.3527L224.42 73.3373C223.569 71.8798 223.152 70.3387 223.152 68.68H219.152ZM220.99 75.3952C222.223 77.3933 223.865 79.0118 225.893 80.2368L227.961 76.8132C226.469 75.9115 225.288 74.7433 224.394 73.2948L220.99 75.3952ZM225.919 80.2526C227.982 81.4557 230.217 82.065 232.592 82.065V78.065C230.933 78.065 229.392 77.6476 227.935 76.7974L225.919 80.2526ZM251.854 50.035L250.44 51.4492L250.474 51.4829L250.509 51.5149L251.854 50.035ZM251.854 47.34L250.509 45.8601L250.474 45.8921L250.44 45.9258L251.854 47.34ZM254.549 47.34L253.135 48.7542L253.169 48.7879L253.204 48.8199L254.549 47.34ZM254.549 50.035L253.204 48.5551L253.169 48.5871L253.135 48.6208L254.549 50.035ZM252.349 56.25V54.25H250.349V56.25H252.349ZM254.109 56.25H256.109V54.25H254.109V56.25ZM254.109 81V83H256.109V81H254.109ZM252.349 81H250.349V83H252.349V81ZM253.229 48.585C253.22 48.585 253.22 48.5843 253.225 48.5853C253.231 48.5863 253.237 48.5882 253.243 48.5905C253.249 48.5928 253.249 48.5936 253.243 48.5898C253.237 48.5858 253.222 48.5756 253.199 48.5551L250.509 51.5149C251.255 52.1936 252.186 52.585 253.229 52.585V48.585ZM253.268 48.6208C253.266 48.618 253.27 48.622 253.278 48.6334C253.285 48.645 253.293 48.6589 253.299 48.6735C253.301 48.6803 253.303 48.6862 253.305 48.6906C253.305 48.6928 253.306 48.6945 253.306 48.6957C253.306 48.6969 253.306 48.6976 253.306 48.6975C253.306 48.6975 253.306 48.6968 253.306 48.6954C253.306 48.6939 253.305 48.6917 253.305 48.6887C253.305 48.6826 253.304 48.6732 253.304 48.66H249.304C249.304 49.7047 249.674 50.683 250.44 51.4492L253.268 48.6208ZM253.304 48.66C253.304 48.6512 253.305 48.6542 253.303 48.6664C253.3 48.679 253.295 48.6958 253.288 48.7142C253.28 48.7326 253.272 48.7467 253.266 48.7554C253.26 48.7638 253.259 48.7631 253.268 48.7542L250.44 45.9258C249.702 46.6632 249.304 47.6102 249.304 48.66H253.304ZM253.199 48.8199C253.222 48.7994 253.237 48.7892 253.243 48.7852C253.249 48.7814 253.249 48.7822 253.243 48.7845C253.237 48.7868 253.231 48.7887 253.225 48.7897C253.22 48.7907 253.22 48.79 253.229 48.79V44.79C252.186 44.79 251.255 45.1814 250.509 45.8601L253.199 48.8199ZM253.229 48.79C253.238 48.79 253.235 48.7907 253.223 48.7884C253.21 48.786 253.193 48.7813 253.175 48.7737C253.156 48.766 253.142 48.7578 253.134 48.7518C253.125 48.7461 253.126 48.7453 253.135 48.7542L255.963 45.9258C255.226 45.1883 254.279 44.79 253.229 44.79V48.79ZM253.204 48.8199C253.231 48.8446 253.21 48.8326 253.185 48.7783C253.173 48.7532 253.165 48.727 253.16 48.7027C253.155 48.6787 253.154 48.6634 253.154 48.66H257.154C257.154 47.5451 256.686 46.5794 255.894 45.8601L253.204 48.8199ZM253.154 48.66C253.154 48.6749 253.153 48.6748 253.155 48.6631C253.158 48.6509 253.163 48.6323 253.172 48.6108C253.182 48.5892 253.192 48.5719 253.201 48.5601C253.209 48.5487 253.212 48.5475 253.204 48.5551L255.894 51.5149C256.719 50.7653 257.154 49.7677 257.154 48.66H253.154ZM253.135 48.6208C253.126 48.6297 253.125 48.6289 253.134 48.6232C253.142 48.6172 253.156 48.609 253.175 48.6013C253.193 48.5937 253.21 48.589 253.223 48.5866C253.235 48.5843 253.238 48.585 253.229 48.585V52.585C254.279 52.585 255.226 52.1867 255.963 51.4492L253.135 48.6208ZM252.349 58.25H254.109V54.25H252.349V58.25ZM252.109 56.25V81H256.109V56.25H252.109ZM254.109 79H252.349V83H254.109V79ZM254.349 81V56.25H250.349V81H254.349ZM267.37 79.845L266.35 81.5656L266.357 81.5697L266.364 81.5737L267.37 79.845ZM262.64 75.115L264.36 74.0954L262.64 75.115ZM262.64 62.135L260.919 61.1154L262.64 62.135ZM267.37 57.405L266.364 55.6763L266.357 55.6803L266.35 55.6844L267.37 57.405ZM280.57 57.515L279.545 59.2326L279.556 59.2393L279.568 59.2459L280.57 57.515ZM285.19 62.3L283.401 63.1944L287.19 62.3H285.19ZM285.19 39.75V37.75H283.19V39.75H285.19ZM286.95 39.75H288.95V37.75H286.95V39.75ZM286.95 81V83H288.95V81H286.95ZM285.19 81H283.19V83H285.19V81ZM285.19 75.005H287.19V67.2867L283.441 74.0337L285.19 75.005ZM280.405 79.79L279.403 78.0591L279.396 78.063L279.389 78.0669L280.405 79.79ZM279.525 78.525L280.548 80.2432L280.559 80.2368L279.525 78.525ZM283.705 74.345L281.993 73.3107L281.987 73.3214L283.705 74.345ZM283.705 63.015L281.977 64.0227L281.985 64.036L281.993 64.0492L283.705 63.015ZM279.525 58.78L278.475 60.4821L278.482 60.487L278.49 60.4918L279.525 58.78ZM268.305 58.78L269.328 60.4982L269.342 60.4902L269.355 60.4821L268.305 58.78ZM264.125 74.345L262.382 75.3255L262.394 75.3472L262.407 75.3686L264.125 74.345ZM268.25 78.525L267.2 80.2271L267.221 80.2401L267.242 80.2526L268.25 78.525ZM273.97 79.605C271.932 79.605 270.08 79.108 268.376 78.1163L266.364 81.5737C268.693 82.9287 271.241 83.605 273.97 83.605V79.605ZM268.389 78.1244C266.698 77.1222 265.363 75.7866 264.36 74.0954L260.919 76.1346C262.264 78.4034 264.081 80.2211 266.35 81.5656L268.389 78.1244ZM264.36 74.0954C263.374 72.4303 262.88 70.6203 262.88 68.625H258.88C258.88 71.3231 259.559 73.8397 260.919 76.1346L264.36 74.0954ZM262.88 68.625C262.88 66.6297 263.374 64.8197 264.36 63.1546L260.919 61.1154C259.559 63.4103 258.88 65.9269 258.88 68.625H262.88ZM264.36 63.1546C265.363 61.4634 266.698 60.1278 268.389 59.1256L266.35 55.6844C264.081 57.0289 262.264 58.8466 260.919 61.1154L264.36 63.1546ZM268.376 59.1337C270.08 58.142 271.932 57.645 273.97 57.645V53.645C271.241 53.645 268.693 54.3213 266.364 55.6763L268.376 59.1337ZM273.97 57.645C275.899 57.645 277.748 58.1605 279.545 59.2326L281.594 55.7974C279.212 54.3762 276.66 53.645 273.97 53.645V57.645ZM279.568 59.2459C281.351 60.2785 282.602 61.5959 283.401 63.1944L286.979 61.4056C285.798 59.0441 283.968 57.1715 281.572 55.7841L279.568 59.2459ZM287.19 62.3V39.75H283.19V62.3H287.19ZM285.19 41.75H286.95V37.75H285.19V41.75ZM284.95 39.75V81H288.95V39.75H284.95ZM286.95 79H285.19V83H286.95V79ZM287.19 81V75.005H283.19V81H287.19ZM283.441 74.0337C282.529 75.6767 281.201 77.0178 279.403 78.0591L281.407 81.5209C283.788 80.1422 285.651 78.2933 286.938 75.9763L283.441 74.0337ZM279.389 78.0669C277.623 79.108 275.826 79.605 273.97 79.605V83.605C276.587 83.605 279.08 82.892 281.42 81.5131L279.389 78.0669ZM273.915 82.065C276.29 82.065 278.514 81.4553 280.548 80.2432L278.501 76.8068C277.089 77.648 275.573 78.065 273.915 78.065V82.065ZM280.559 80.2368C282.593 79.0081 284.224 77.3813 285.423 75.3686L281.987 73.3214C281.132 74.7554 279.977 75.9152 278.49 76.8132L280.559 80.2368ZM285.417 75.3792C286.665 73.3136 287.3 71.0687 287.3 68.68H283.3C283.3 70.3246 282.872 71.8564 281.993 73.3108L285.417 75.3792ZM287.3 68.68C287.3 66.2913 286.665 64.0464 285.417 61.9808L281.993 64.0492C282.872 65.5036 283.3 67.0354 283.3 68.68H287.3ZM285.432 62.0073C284.235 59.9555 282.603 58.3028 280.559 57.0682L278.49 60.4918C279.967 61.3838 281.121 62.5545 281.977 64.0227L285.432 62.0073ZM280.575 57.0779C278.537 55.8207 276.304 55.185 273.915 55.185V59.185C275.559 59.185 277.065 59.6127 278.475 60.4821L280.575 57.0779ZM273.915 55.185C271.526 55.185 269.292 55.8207 267.255 57.0779L269.355 60.4821C270.764 59.6127 272.271 59.185 273.915 59.185V55.185ZM267.281 57.0618C265.262 58.2647 263.647 59.9045 262.452 61.9523L265.907 63.9677C266.766 62.4955 267.901 61.3487 269.328 60.4982L267.281 57.0618ZM262.452 61.9523C261.249 64.0148 260.64 66.2504 260.64 68.625H264.64C264.64 66.9663 265.057 65.4252 265.907 63.9677L262.452 61.9523ZM260.64 68.625C260.64 71.0158 261.22 73.2609 262.382 75.3255L265.868 73.3645C265.049 71.9091 264.64 70.3409 264.64 68.625H260.64ZM262.407 75.3686C263.6 77.3713 265.205 78.9963 267.2 80.2271L269.3 76.8229C267.848 75.927 266.703 74.7654 265.843 73.3214L262.407 75.3686ZM267.242 80.2526C269.305 81.4557 271.54 82.065 273.915 82.065V78.065C272.256 78.065 270.715 77.6476 269.257 76.7974L267.242 80.2526ZM299.007 79.845L298.001 81.5737L299.007 79.845ZM294.222 75.115L292.493 76.1208L292.497 76.1277L292.501 76.1346L294.222 75.115ZM294.222 62.19L295.942 63.2096L295.946 63.2027L295.95 63.1958L294.222 62.19ZM299.007 57.405L298.001 55.6763L299.007 57.405ZM312.317 57.57L311.283 59.2824L311.294 59.289L311.305 59.2954L312.317 57.57ZM316.772 62.465L314.927 63.2366L318.772 62.465H316.772ZM316.772 56.25V54.25H314.772V56.25H316.772ZM318.532 56.25H320.532V54.25H318.532V56.25ZM318.532 81V83H320.532V81H318.532ZM316.772 81H314.772V83H316.772V81ZM316.772 74.84H318.772L314.97 73.9714L316.772 74.84ZM312.152 79.79L313.167 81.5131L313.176 81.5076L312.152 79.79ZM311.272 78.525L312.295 80.2432L312.309 80.2352L312.322 80.2271L311.272 78.525ZM315.342 74.345L313.614 73.3372L313.608 73.3488L315.342 74.345ZM315.342 62.96L313.614 63.9677L315.342 62.96ZM311.217 58.78L310.167 60.4821L310.18 60.4902L310.193 60.4982L311.217 58.78ZM299.942 58.78L298.908 57.0682L298.9 57.073L298.892 57.0779L299.942 58.78ZM295.762 63.015L294.05 61.9808L294.042 61.9939L294.034 62.0073L295.762 63.015ZM295.762 74.345L294.034 75.3527L294.047 75.3741L294.06 75.3952L295.762 74.345ZM299.997 78.525L298.963 80.2368L298.976 80.2448L298.989 80.2526L299.997 78.525ZM305.552 79.605C303.556 79.605 301.722 79.1109 300.013 78.1163L298.001 81.5737C300.325 82.9258 302.854 83.605 305.552 83.605V79.605ZM300.013 78.1163C298.286 77.112 296.939 75.7778 295.942 74.0954L292.501 76.1346C293.851 78.4122 295.694 80.2313 298.001 81.5737L300.013 78.1163ZM295.95 74.1092C294.953 72.3947 294.462 70.5779 294.462 68.625H290.462C290.462 71.292 291.144 73.8019 292.493 76.1208L295.95 74.1092ZM294.462 68.625C294.462 66.6724 294.953 64.8798 295.942 63.2096L292.501 61.1704C291.144 63.4602 290.462 65.9576 290.462 68.625H294.462ZM295.95 63.1958C296.95 61.4786 298.295 60.1328 300.013 59.1337L298.001 55.6763C295.685 57.0239 293.841 58.868 292.493 61.1842L295.95 63.1958ZM300.013 59.1337C301.722 58.1391 303.556 57.645 305.552 57.645V53.645C302.854 53.645 300.325 54.3242 298.001 55.6763L300.013 59.1337ZM305.552 57.645C307.555 57.645 309.455 58.1789 311.283 59.2824L313.35 55.8576C310.925 54.3944 308.315 53.645 305.552 53.645V57.645ZM311.305 59.2954C313.108 60.3522 314.272 61.6702 314.927 63.2366L318.617 61.6934C317.585 59.2264 315.779 57.2811 313.328 55.8446L311.305 59.2954ZM318.772 62.465V56.25H314.772V62.465H318.772ZM316.772 58.25H318.532V54.25H316.772V58.25ZM316.532 56.25V81H320.532V56.25H316.532ZM318.532 79H316.772V83H318.532V79ZM318.772 81V74.84H314.772V81H318.772ZM314.97 73.9714C314.162 75.6475 312.904 77.0122 311.127 78.0724L313.176 81.5076C315.579 80.0744 317.401 78.1392 318.573 75.7086L314.97 73.9714ZM311.136 78.0669C309.386 79.0986 307.535 79.605 305.552 79.605V83.605C308.261 83.605 310.811 82.9014 313.167 81.5131L311.136 78.0669ZM305.662 82.065C308.037 82.065 310.261 81.4553 312.295 80.2432L310.248 76.8068C308.836 77.648 307.32 78.065 305.662 78.065V82.065ZM312.322 80.2271C314.323 78.9925 315.917 77.3587 317.076 75.3412L313.608 73.3488C312.787 74.7779 311.667 75.9309 310.222 76.8229L312.322 80.2271ZM317.069 75.3527C318.276 73.2844 318.882 71.0296 318.882 68.625H314.882C314.882 70.3271 314.461 71.8856 313.614 73.3373L317.069 75.3527ZM318.882 68.625C318.882 66.2504 318.272 64.0148 317.069 61.9523L313.614 63.9677C314.464 65.4252 314.882 66.9663 314.882 68.625H318.882ZM317.069 61.9523C315.875 59.9045 314.259 58.2647 312.24 57.0618L310.193 60.4982C311.621 61.3487 312.755 62.4955 313.614 63.9677L317.069 61.9523ZM312.267 57.0779C310.229 55.8207 307.996 55.185 305.607 55.185V59.185C307.251 59.185 308.758 59.6127 310.167 60.4821L312.267 57.0779ZM305.607 55.185C303.218 55.185 300.973 55.8202 298.908 57.0682L300.976 60.4918C302.43 59.6131 303.962 59.185 305.607 59.185V55.185ZM298.892 57.0779C296.893 58.3108 295.275 59.9531 294.05 61.9808L297.474 64.0492C298.375 62.5569 299.543 61.3759 300.992 60.4821L298.892 57.0779ZM294.034 62.0073C292.831 64.0698 292.222 66.3054 292.222 68.68H296.222C296.222 67.0213 296.639 65.4802 297.489 64.0227L294.034 62.0073ZM292.222 68.68C292.222 71.0546 292.831 73.2902 294.034 75.3527L297.489 73.3373C296.639 71.8798 296.222 70.3387 296.222 68.68H292.222ZM294.06 75.3952C295.293 77.3933 296.935 79.0118 298.963 80.2368L301.031 76.8132C299.539 75.9115 298.358 74.7433 297.464 73.2948L294.06 75.3952ZM298.989 80.2526C301.052 81.4557 303.287 82.065 305.662 82.065V78.065C304.003 78.065 302.462 77.6476 301.004 76.7974L298.989 80.2526ZM326.794 80.725L325.959 82.5424L325.979 82.5518L326 82.5607L326.794 80.725ZM323.879 78.36H321.879V78.9261L322.175 79.4082L323.879 78.36ZM323.879 75.445L325.708 74.6367L321.879 75.445H323.879ZM326.739 78.965L325.665 80.6523L325.683 80.6641L325.702 80.6754L326.739 78.965ZM335.704 78.415L337.118 79.8292L337.13 79.8176L337.141 79.8058L335.704 78.415ZM336.419 70.605L334.81 71.7938L334.823 71.811L334.836 71.8279L336.419 70.605ZM333.394 68.075L334.429 66.364L334.413 66.3539L334.396 66.3441L333.394 68.075ZM331.304 66.865L330.263 68.5726L330.282 68.5844L330.302 68.5959L331.304 66.865ZM327.894 64.72L326.694 66.32L326.738 66.3533L326.784 66.3841L327.894 64.72ZM326.134 62.905L324.443 63.973L324.456 63.9939L324.47 64.0144L326.134 62.905ZM327.014 56.965L328.315 58.4835L327.014 56.965ZM336.089 57.02H338.089V55.9576L337.208 55.3628L336.089 57.02ZM336.089 59.44L334.493 60.6462L338.089 65.4013V59.44H336.089ZM328.334 58.065L327.084 56.5033L328.334 58.065ZM327.894 62.465L326.26 63.6184L326.276 63.6419L326.294 63.665L327.894 62.465ZM329.709 64.115L328.599 65.7791L328.617 65.7909L328.635 65.8023L329.709 64.115ZM333.669 66.425L334.657 64.6864L334.646 64.68L333.669 66.425ZM337.794 69.725L336.212 70.9493L336.222 70.9619L336.232 70.9744L337.794 69.725ZM336.859 79.57L338.217 81.0382L338.218 81.0369L336.859 79.57ZM331.469 79.605C329.931 79.605 328.651 79.349 327.588 78.8893L326 82.5607C327.65 83.2744 329.487 83.605 331.469 83.605V79.605ZM327.629 78.9076C326.514 78.3953 325.903 77.8332 325.582 77.3118L322.175 79.4082C323.028 80.7935 324.361 81.808 325.959 82.5424L327.629 78.9076ZM325.879 78.36V75.445H321.879V78.36H325.879ZM322.049 76.2533C322.873 78.1172 324.06 79.6307 325.665 80.6523L327.813 77.2777C326.998 76.7593 326.278 75.9261 325.708 74.6367L322.049 76.2533ZM325.702 80.6754C327.31 81.6498 329.238 82.065 331.359 82.065V78.065C329.74 78.065 328.588 77.7468 327.775 77.2546L325.702 80.6754ZM331.359 82.065C333.597 82.065 335.584 81.3629 337.118 79.8292L334.29 77.0008C333.623 77.6671 332.714 78.065 331.359 78.065V82.065ZM337.141 79.8058C338.644 78.2528 339.354 76.2854 339.354 74.07H335.354C335.354 75.3746 334.964 76.3039 334.267 77.0242L337.141 79.8058ZM339.354 74.07C339.354 72.3258 338.997 70.6707 338.001 69.3821L334.836 71.8279C335.087 72.1526 335.354 72.8075 335.354 74.07H339.354ZM338.027 69.4162C337.187 68.2798 335.936 67.2757 334.429 66.364L332.358 69.786C333.639 70.561 334.404 71.2435 334.81 71.7938L338.027 69.4162ZM334.396 66.3441L332.306 65.1341L330.302 68.5959L332.392 69.8059L334.396 66.3441ZM332.345 65.1574C330.848 64.2447 329.739 63.5464 329.003 63.0559L326.784 66.3841C327.589 66.9202 328.753 67.652 330.263 68.5726L332.345 65.1574ZM329.094 63.12C328.514 62.6852 328.094 62.2401 327.798 61.7956L324.47 64.0144C325.053 64.8899 325.807 65.6548 326.694 66.32L329.094 63.12ZM327.825 61.837C327.609 61.4952 327.474 61.0675 327.474 60.485H323.474C323.474 61.7358 323.779 62.9215 324.443 63.973L327.825 61.837ZM327.474 60.485C327.474 59.5463 327.773 58.9486 328.315 58.4835L325.712 55.4465C324.201 56.7414 323.474 58.4904 323.474 60.485H327.474ZM328.315 58.4835C328.904 57.9787 329.747 57.645 331.029 57.645V53.645C329.011 53.645 327.177 54.1913 325.712 55.4465L328.315 58.4835ZM331.029 57.645C332.74 57.645 334.013 58.031 334.969 58.6772L337.208 55.3628C335.452 54.1757 333.351 53.645 331.029 53.645V57.645ZM334.089 57.02V59.44H338.089V57.02H334.089ZM337.684 58.2338C336.117 56.1614 333.855 55.185 331.194 55.185V59.185C332.786 59.185 333.787 59.712 334.493 60.6462L337.684 58.2338ZM331.194 55.185C329.682 55.185 328.253 55.5681 327.084 56.5033L329.583 59.6267C329.881 59.3886 330.359 59.185 331.194 59.185V55.185ZM327.084 56.5033C325.89 57.4587 325.234 58.7787 325.234 60.32H329.234C329.234 60.028 329.311 59.8447 329.583 59.6267L327.084 56.5033ZM325.234 60.32C325.234 61.5146 325.568 62.6377 326.26 63.6184L329.528 61.3116C329.34 61.0456 329.234 60.7387 329.234 60.32H325.234ZM326.294 63.665C326.9 64.4735 327.688 65.1715 328.599 65.7791L330.818 62.4509C330.19 62.0319 329.767 61.6298 329.494 61.265L326.294 63.665ZM328.635 65.8023C329.493 66.348 330.855 67.1413 332.692 68.17L334.646 64.68C332.816 63.6553 331.538 62.9086 330.783 62.4277L328.635 65.8023ZM332.68 68.1636C334.424 69.1551 335.554 70.0986 336.212 70.9493L339.375 68.5007C338.274 67.0781 336.654 65.8216 334.657 64.6864L332.68 68.1636ZM336.232 70.9744C336.758 71.6318 337.114 72.6003 337.114 74.07H341.114C341.114 71.9463 340.59 70.0182 339.356 68.4756L336.232 70.9744ZM337.114 74.07C337.114 75.8539 336.547 77.1318 335.499 78.1031L338.218 81.0369C340.177 79.2215 341.114 76.8327 341.114 74.07H337.114ZM335.501 78.1018C334.429 79.0932 333.128 79.605 331.469 79.605V83.605C334.063 83.605 336.355 82.7602 338.217 81.0382L335.501 78.1018Z" fill="#FAFF00" mask="url(#path-3-outside-1_611_20)"/>
</g>
<g filter="url(#filter3_ddd_611_20)">
<path d="M376.375 46.4166C376.375 48.0742 377.033 49.6639 378.206 50.836C379.378 52.0081 380.967 52.6666 382.625 52.6666C384.283 52.6666 385.872 52.0081 387.044 50.836C388.217 49.6639 388.875 48.0742 388.875 46.4166C388.875 44.759 388.217 43.1693 387.044 41.9972C385.872 40.8251 384.283 40.1666 382.625 40.1666C380.967 40.1666 379.378 40.8251 378.206 41.9972C377.033 43.1693 376.375 44.759 376.375 46.4166Z" fill="#FFECB3"/>
<path d="M384.708 44.8542C384.708 45.6065 384.857 46.3515 385.144 47.0466C385.432 47.7417 385.854 48.3733 386.386 48.9053C386.918 49.4373 387.55 49.8593 388.245 50.1472C388.94 50.4351 389.685 50.5833 390.437 50.5833C391.19 50.5833 391.935 50.4351 392.63 50.1472C393.325 49.8593 393.957 49.4373 394.489 48.9053C395.021 48.3733 395.443 47.7417 395.731 47.0466C396.018 46.3515 396.167 45.6065 396.167 44.8542C396.167 44.1018 396.018 43.3568 395.731 42.6617C395.443 41.9666 395.021 41.335 394.489 40.803C393.957 40.271 393.325 39.849 392.63 39.5611C391.935 39.2732 391.19 39.125 390.437 39.125C389.685 39.125 388.94 39.2732 388.245 39.5611C387.55 39.849 386.918 40.271 386.386 40.803C385.854 41.335 385.432 41.9666 385.144 42.6617C384.857 43.3568 384.708 44.1018 384.708 44.8542Z" fill="#FFECB3"/>
<path d="M394.083 45.8959C394.083 46.3747 394.178 46.8488 394.361 47.2912C394.544 47.7336 394.812 48.1356 395.151 48.4742C395.49 48.8127 395.892 49.0813 396.334 49.2646C396.776 49.4478 397.25 49.5421 397.729 49.5421C398.208 49.5421 398.682 49.4478 399.124 49.2646C399.567 49.0813 399.969 48.8127 400.307 48.4742C400.646 48.1356 400.914 47.7336 401.098 47.2912C401.281 46.8488 401.375 46.3747 401.375 45.8959C401.375 45.4171 401.281 44.9429 401.098 44.5006C400.914 44.0582 400.646 43.6562 400.307 43.3176C399.969 42.979 399.567 42.7104 399.124 42.5272C398.682 42.3439 398.208 42.2496 397.729 42.2496C397.25 42.2496 396.776 42.3439 396.334 42.5272C395.892 42.7104 395.49 42.979 395.151 43.3176C394.812 43.6562 394.544 44.0582 394.361 44.5006C394.178 44.9429 394.083 45.4171 394.083 45.8959Z" fill="#FFECB3"/>
<path d="M390.958 50.0625C390.958 50.5413 391.053 51.0155 391.236 51.4578C391.419 51.9002 391.687 52.3022 392.026 52.6408C392.365 52.9794 392.767 53.248 393.209 53.4312C393.651 53.6145 394.125 53.7088 394.604 53.7088C395.083 53.7088 395.557 53.6145 395.999 53.4312C396.442 53.248 396.844 52.9794 397.182 52.6408C397.521 52.3022 397.789 51.9002 397.973 51.4578C398.156 51.0155 398.25 50.5413 398.25 50.0625C398.25 49.5837 398.156 49.1096 397.973 48.6672C397.789 48.2248 397.521 47.8228 397.182 47.4842C396.844 47.1457 396.442 46.8771 395.999 46.6938C395.557 46.5106 395.083 46.4163 394.604 46.4163C394.125 46.4163 393.651 46.5106 393.209 46.6938C392.767 46.8771 392.365 47.1457 392.026 47.4842C391.687 47.8228 391.419 48.2248 391.236 48.6672C391.053 49.1096 390.958 49.5837 390.958 50.0625Z" fill="#FFECB3"/>
<path d="M373.25 46.9375C373.25 47.6282 373.524 48.2906 374.013 48.779C374.501 49.2673 375.163 49.5417 375.854 49.5417C376.545 49.5417 377.207 49.2673 377.696 48.779C378.184 48.2906 378.458 47.6282 378.458 46.9375C378.458 46.2469 378.184 45.5845 377.696 45.0961C377.207 44.6077 376.545 44.3334 375.854 44.3334C375.163 44.3334 374.501 44.6077 374.013 45.0961C373.524 45.5845 373.25 46.2469 373.25 46.9375Z" fill="#FFECB3"/>
<path d="M398.25 46.9375C398.25 47.6282 398.524 48.2906 399.013 48.779C399.501 49.2673 400.163 49.5417 400.854 49.5417C401.545 49.5417 402.207 49.2673 402.696 48.779C403.184 48.2906 403.458 47.6282 403.458 46.9375C403.458 46.2469 403.184 45.5845 402.696 45.0961C402.207 44.6077 401.545 44.3334 400.854 44.3334C400.163 44.3334 399.501 44.6077 399.013 45.0961C398.524 45.5845 398.25 46.2469 398.25 46.9375Z" fill="#FFECB3"/>
<path d="M400.865 76.625C399.346 76.6231 397.89 76.0189 396.816 74.9449C395.742 73.8709 395.137 72.4148 395.135 70.8959V59.4375C395.135 59.1365 395.131 58.898 395.128 58.7115C395.118 58.0521 395.108 57.4834 395.614 56.9698L396.072 56.5042L396.761 56.4896C397.193 56.4896 397.5 56.6563 397.666 56.7459L397.686 56.7573C399.148 55.8896 403.119 53.7084 406.073 53.7084C410.76 53.7084 410.76 57.2938 410.76 59.4365C410.703 60.4802 410.216 68.9271 409.678 71.2469C408.9 74.6136 406.773 76.624 403.99 76.624L400.865 76.625ZM398.26 59.9584V70.8959C398.26 72.3313 399.428 73.5 400.865 73.5L403.989 73.499C405.696 73.499 406.378 71.6469 406.634 70.5428C407.038 68.798 407.495 61.8709 407.638 59.348C407.635 56.8334 407.517 56.8334 406.073 56.8334C403.891 56.8334 400.019 58.9688 398.834 59.7178L398.451 59.9584H398.26ZM375.333 77.6667V79.75C375.333 80.3026 375.553 80.8325 375.944 81.2232C376.334 81.6139 376.864 81.8334 377.417 81.8334H399.292C399.844 81.8334 400.374 81.6139 400.765 81.2232C401.156 80.8325 401.375 80.3026 401.375 79.75V77.6667H375.333Z" fill="#BBDEFB"/>
<path d="M375.333 48.5H401.375V77.6667H375.333V48.5Z" fill="#FFB300"/>
<path d="M375.333 48.5H401.375V56.8333H375.333V48.5Z" fill="#FFD54F"/>
<path d="M390.958 64.6459C390.958 65.0603 391.123 65.4577 391.416 65.7507C391.709 66.0438 392.106 66.2084 392.521 66.2084C392.935 66.2084 393.333 66.0438 393.626 65.7507C393.919 65.4577 394.083 65.0603 394.083 64.6459C394.083 64.2315 393.919 63.834 393.626 63.541C393.333 63.248 392.935 63.0834 392.521 63.0834C392.106 63.0834 391.709 63.248 391.416 63.541C391.123 63.834 390.958 64.2315 390.958 64.6459Z" fill="#FFECB3"/>
<path d="M393.042 70.8959C393.042 71.3103 393.206 71.7077 393.499 72.0007C393.792 72.2938 394.19 72.4584 394.604 72.4584C395.019 72.4584 395.416 72.2938 395.709 72.0007C396.002 71.7077 396.167 71.3103 396.167 70.8959C396.167 70.4815 396.002 70.084 395.709 69.791C395.416 69.498 395.019 69.3334 394.604 69.3334C394.19 69.3334 393.792 69.498 393.499 69.791C393.206 70.084 393.042 70.4815 393.042 70.8959Z" fill="#FFE082"/>
<path d="M396.167 62.0417C396.167 62.3179 396.276 62.5829 396.472 62.7782C396.667 62.9736 396.932 63.0833 397.208 63.0833C397.485 63.0833 397.75 62.9736 397.945 62.7782C398.14 62.5829 398.25 62.3179 398.25 62.0417C398.25 61.7654 398.14 61.5004 397.945 61.3051C397.75 61.1097 397.485 61 397.208 61C396.932 61 396.667 61.1097 396.472 61.3051C396.276 61.5004 396.167 61.7654 396.167 62.0417Z" fill="#FFF8E1"/>
<path d="M381.996 56.3562C382.575 53.3406 382.575 50.0594 379.847 48.5C381.583 46.4167 386.792 46.4167 388.55 48.5C385.521 50.2313 385.852 54.0854 386.609 57.3406C387.218 59.0375 387.599 60.5656 387.749 61.5375L387.754 61.5729C387.797 61.8552 387.825 62.1073 387.825 62.2781C387.825 63.2395 387.443 64.1616 386.763 64.8414C386.083 65.5212 385.161 65.9031 384.2 65.9031C383.239 65.9031 382.317 65.5212 381.637 64.8414C380.957 64.1616 380.575 63.2395 380.575 62.2781C380.575 62.1219 380.598 61.9021 380.633 61.6542C380.779 60.4792 381.295 58.7104 381.996 56.3562Z" fill="#FFFDF0"/>
<path d="M389.811 48.5C389.571 47.3238 388.932 46.2665 388.002 45.5073C387.073 44.748 385.909 44.3333 384.708 44.3333C383.508 44.3333 382.344 44.748 381.414 45.5073C380.484 46.2665 379.845 47.3238 379.605 48.5H389.811Z" fill="#FFFDF0"/>
<path d="M394.03 48.4999C394.107 48.1216 394.1 47.7308 394.007 47.3559C393.915 46.9809 393.74 46.6312 393.496 46.3321C393.252 46.033 392.944 45.792 392.595 45.6264C392.246 45.4609 391.865 45.375 391.479 45.375C391.092 45.375 390.711 45.4609 390.362 45.6264C390.013 45.792 389.706 46.033 389.461 46.3321C389.217 46.6312 389.043 46.9809 388.95 47.3559C388.858 47.7308 388.85 48.1216 388.927 48.4999H394.03Z" fill="#FFFDF0"/>
</g>
<defs>
<filter id="filter0_dddddd_611_20" x="0" y="0" width="451" height="128" filterUnits="userSpaceOnUse" color-interpolation-filters="sRGB">
<feFlood flood-opacity="0" result="BackgroundImageFix"/>
<feColorMatrix in="SourceAlpha" type="matrix" values="0 0 0 0 0 0 0 0 0 0 0 0 0 0 0 0 0 0 127 0" result="hardAlpha"/>
<feOffset dy="4"/>
<feGaussianBlur stdDeviation="6"/>
<feColorMatrix type="matrix" values="0 0 0 0 0.980392 0 0 0 0 1 0 0 0 0 0 0 0 0 0.25 0"/>
<feBlend mode="normal" in2="BackgroundImageFix" result="effect1_dropShadow_611_20"/>
<feColorMatrix in="SourceAlpha" type="matrix" values="0 0 0 0 0 0 0 0 0 0 0 0 0 0 0 0 0 0 127 0" result="hardAlpha"/>
<feOffset dy="4"/>
<feGaussianBlur stdDeviation="6"/>
<feColorMatrix type="matrix" values="0 0 0 0 0.980392 0 0 0 0 1 0 0 0 0 0 0 0 0 0.25 0"/>
<feBlend mode="normal" in2="effect1_dropShadow_611_20" result="effect2_dropShadow_611_20"/>
<feColorMatrix in="SourceAlpha" type="matrix" values="0 0 0 0 0 0 0 0 0 0 0 0 0 0 0 0 0 0 127 0" result="hardAlpha"/>
<feOffset dy="4"/>
<feGaussianBlur stdDeviation="6"/>
<feColorMatrix type="matrix" values="0 0 0 0 0.980392 0 0 0 0 1 0 0 0 0 0 0 0 0 0.25 0"/>
<feBlend mode="normal" in2="effect2_dropShadow_611_20" result="effect3_dropShadow_611_20"/>
<feColorMatrix in="SourceAlpha" type="matrix" values="0 0 0 0 0 0 0 0 0 0 0 0 0 0 0 0 0 0 127 0" result="hardAlpha"/>
<feOffset dy="4"/>
<feGaussianBlur stdDeviation="6"/>
<feColorMatrix type="matrix" values="0 0 0 0 0.980392 0 0 0 0 1 0 0 0 0 0 0 0 0 0.25 0"/>
<feBlend mode="normal" in2="effect3_dropShadow_611_20" result="effect4_dropShadow_611_20"/>
<feColorMatrix in="SourceAlpha" type="matrix" values="0 0 0 0 0 0 0 0 0 0 0 0 0 0 0 0 0 0 127 0" result="hardAlpha"/>
<feOffset dy="4"/>
<feGaussianBlur stdDeviation="6"/>
<feColorMatrix type="matrix" values="0 0 0 0 0.980392 0 0 0 0 1 0 0 0 0 0 0 0 0 0.25 0"/>
<feBlend mode="normal" in2="effect4_dropShadow_611_20" result="effect5_dropShadow_611_20"/>
<feColorMatrix in="SourceAlpha" type="matrix" values="0 0 0 0 0 0 0 0 0 0 0 0 0 0 0 0 0 0 127 0" result="hardAlpha"/>
<feOffset dy="4"/>
<feGaussianBlur stdDeviation="2"/>
<feComposite in2="hardAlpha" operator="out"/>
<feColorMatrix type="matrix" values="0 0 0 0 0 0 0 0 0 0 0 0 0 0 0 0 0 0 0.25 0"/>
<feBlend mode="normal" in2="effect5_dropShadow_611_20" result="effect6_dropShadow_611_20"/>
<feBlend mode="normal" in="SourceGraphic" in2="effect6_dropShadow_611_20" result="shape"/>
</filter>
<filter id="filter1_dd_611_20" x="0" y="0" width="451" height="128" filterUnits="userSpaceOnUse" color-interpolation-filters="sRGB">
<feFlood flood-opacity="0" result="BackgroundImageFix"/>
<feColorMatrix in="SourceAlpha" type="matrix" values="0 0 0 0 0 0 0 0 0 0 0 0 0 0 0 0 0 0 127 0" result="hardAlpha"/>
<feOffset dy="4"/>
<feGaussianBlur stdDeviation="6"/>
<feComposite in2="hardAlpha" operator="out"/>
<feColorMatrix type="matrix" values="0 0 0 0 1 0 0 0 0 1 0 0 0 0 1 0 0 0 0.25 0"/>
<feBlend mode="normal" in2="BackgroundImageFix" result="effect1_dropShadow_611_20"/>
<feColorMatrix in="SourceAlpha" type="matrix" values="0 0 0 0 0 0 0 0 0 0 0 0 0 0 0 0 0 0 127 0" result="hardAlpha"/>
<feOffset dy="4"/>
<feGaussianBlur stdDeviation="6"/>
<feComposite in2="hardAlpha" operator="out"/>
<feColorMatrix type="matrix" values="0 0 0 0 1 0 0 0 0 1 0 0 0 0 1 0 0 0 0.25 0"/>
<feBlend mode="normal" in2="effect1_dropShadow_611_20" result="effect2_dropShadow_611_20"/>
<feBlend mode="normal" in="SourceGraphic" in2="effect2_dropShadow_611_20" result="shape"/>
</filter>
<filter id="filter2_dd_611_20" x="14.1601" y="14.75" width="349.954" height="91.91" filterUnits="userSpaceOnUse" color-interpolation-filters="sRGB">
<feFlood flood-opacity="0" result="BackgroundImageFix"/>
<feColorMatrix in="SourceAlpha" type="matrix" values="0 0 0 0 0 0 0 0 0 0 0 0 0 0 0 0 0 0 127 0" result="hardAlpha"/>
<feOffset/>
<feGaussianBlur stdDeviation="12.5"/>
<feColorMatrix type="matrix" values="0 0 0 0 0.980392 0 0 0 0 1 0 0 0 0 0 0 0 0 0.5 0"/>
<feBlend mode="normal" in2="BackgroundImageFix" result="effect1_dropShadow_611_20"/>
<feColorMatrix in="SourceAlpha" type="matrix" values="0 0 0 0 0 0 0 0 0 0 0 0 0 0 0 0 0 0 127 0" result="hardAlpha"/>
<feOffset/>
<feGaussianBlur stdDeviation="12.5"/>
<feColorMatrix type="matrix" values="0 0 0 0 0.980392 0 0 0 0 1 0 0 0 0 0 0 0 0 0.5 0"/>
<feBlend mode="normal" in2="effect1_dropShadow_611_20" result="effect2_dropShadow_611_20"/>
<feBlend mode="normal" in="SourceGraphic" in2="effect2_dropShadow_611_20" result="shape"/>
</filter>
<filter id="filter3_ddd_611_20" x="355" y="28" width="74" height="74" filterUnits="userSpaceOnUse" color-interpolation-filters="sRGB">
<feFlood flood-opacity="0" result="BackgroundImageFix"/>
<feColorMatrix in="SourceAlpha" type="matrix" values="0 0 0 0 0 0 0 0 0 0 0 0 0 0 0 0 0 0 127 0" result="hardAlpha"/>
<feOffset dy="4"/>
<feGaussianBlur stdDeviation="6"/>
<feColorMatrix type="matrix" values="0 0 0 0 1 0 0 0 0 0.96 0 0 0 0 0 0 0 0 1 0"/>
<feBlend mode="normal" in2="BackgroundImageFix" result="effect1_dropShadow_611_20"/>
<feColorMatrix in="SourceAlpha" type="matrix" values="0 0 0 0 0 0 0 0 0 0 0 0 0 0 0 0 0 0 127 0" result="hardAlpha"/>
<feOffset dy="4"/>
<feGaussianBlur stdDeviation="6"/>
<feColorMatrix type="matrix" values="0 0 0 0 1 0 0 0 0 0.96 0 0 0 0 0 0 0 0 1 0"/>
<feBlend mode="normal" in2="effect1_dropShadow_611_20" result="effect2_dropShadow_611_20"/>
<feColorMatrix in="SourceAlpha" type="matrix" values="0 0 0 0 0 0 0 0 0 0 0 0 0 0 0 0 0 0 127 0" result="hardAlpha"/>
<feOffset dy="4"/>
<feGaussianBlur stdDeviation="6"/>
<feColorMatrix type="matrix" values="0 0 0 0 1 0 0 0 0 0.96 0 0 0 0 0 0 0 0 1 0"/>
<feBlend mode="normal" in2="effect2_dropShadow_611_20" result="effect3_dropShadow_611_20"/>
<feBlend mode="normal" in="SourceGraphic" in2="effect3_dropShadow_611_20" result="shape"/>
</filter>
</defs>
</svg>
