<svg width="759" height="258" viewBox="0 0 759 258" fill="none" xmlns="http://www.w3.org/2000/svg">
<g filter="url(#filter0_ddddd_605_9)">
<mask id="path-1-outside-1_605_9" maskUnits="userSpaceOnUse" x="60" y="72" width="660" height="96" fill="black">
<rect fill="white" x="60" y="72" width="660" height="96"/>
<path d="M62.7584 74H66.7184C76.1584 74 83.5184 76.52 88.7984 81.56C94.0784 86.52 96.7184 93.2 96.7184 101.6C96.7184 107.44 95.4384 112.64 92.8784 117.2C90.3184 121.68 86.8384 125.16 82.4384 127.64C78.0384 130.04 73.1184 131.24 67.6784 131.24H66.7184V164H62.7584V74ZM67.9184 127.76C75.1984 127.76 81.1584 125.52 85.7984 121.04C90.4384 116.48 92.7584 110.08 92.7584 101.84C92.7584 94 90.5584 88 86.1584 83.84C81.8384 79.6 75.6784 77.48 67.6784 77.48H66.7184V127.76H67.9184ZM108.537 110H112.377V122.48C113.977 118.56 116.297 115.48 119.337 113.24C122.457 111 125.977 109.88 129.897 109.88C132.377 109.88 134.897 110.4 137.457 111.44V115.88C135.137 114.12 132.537 113.24 129.657 113.24C126.777 113.24 123.977 114.12 121.257 115.88C118.617 117.64 116.457 120 114.777 122.96C113.177 125.92 112.377 129.08 112.377 132.44V164H108.537V110ZM151.654 97.64C150.534 97.64 149.534 97.24 148.654 96.44C147.854 95.64 147.454 94.64 147.454 93.44C147.454 92.32 147.854 91.36 148.654 90.56C149.534 89.76 150.534 89.36 151.654 89.36C152.774 89.36 153.734 89.76 154.534 90.56C155.414 91.36 155.854 92.32 155.854 93.44C155.854 94.64 155.414 95.64 154.534 96.44C153.734 97.24 152.774 97.64 151.654 97.64ZM149.734 110H153.574V164H149.734V110ZM171.466 110H175.306V118.16C178.986 111.84 184.906 108.68 193.066 108.68C196.986 108.68 200.386 109.8 203.266 112.04C206.146 114.2 208.146 117.48 209.266 121.88C210.306 117.96 212.586 114.8 216.106 112.4C219.706 109.92 223.746 108.68 228.226 108.68C234.066 108.68 238.586 110.4 241.786 113.84C244.986 117.2 246.586 122 246.586 128.24V164H242.746V128.24C242.746 123.2 241.426 119.24 238.786 116.36C236.226 113.48 232.826 112.04 228.586 112.04C225.386 112.04 222.426 112.84 219.706 114.44C216.986 115.96 214.826 118.04 213.226 120.68C211.626 123.32 210.826 126.24 210.826 129.44V164H206.986V130.4C206.986 124.64 205.626 120.16 202.906 116.96C200.186 113.68 196.666 112.04 192.346 112.04C189.466 112.04 186.706 112.76 184.066 114.2C181.506 115.64 179.386 117.6 177.706 120.08C176.106 122.48 175.306 125.12 175.306 128V164H171.466V110ZM287.981 162.08C292.141 162.08 296.101 161 299.861 158.84C303.621 156.68 306.741 153.72 309.221 149.96V156.08C306.261 159.36 303.021 161.76 299.501 163.28C295.981 164.72 291.981 165.44 287.501 165.44C282.541 165.44 277.861 164.12 273.461 161.48C269.141 158.84 265.661 155.32 263.021 150.92C260.461 146.52 259.181 141.84 259.181 136.88C259.181 131.52 260.461 126.72 263.021 122.48C265.581 118.16 269.061 114.8 273.461 112.4C277.941 110 282.901 108.8 288.341 108.8C296.661 108.8 303.741 112.08 309.581 118.64L271.901 155.84C274.541 158 277.101 159.6 279.581 160.64C282.061 161.6 284.861 162.08 287.981 162.08ZM263.021 136.52C263.021 143.16 265.221 148.84 269.621 153.56L304.781 118.64C302.141 116.32 299.581 114.68 297.101 113.72C294.621 112.68 291.661 112.16 288.221 112.16C283.341 112.16 278.981 113.24 275.141 115.4C271.381 117.48 268.421 120.36 266.261 124.04C264.101 127.72 263.021 131.88 263.021 136.52ZM349.871 74H353.711C360.031 74 364.671 75.48 367.631 78.44C370.591 81.32 372.071 85.6 372.071 91.28C372.071 94.56 371.111 97.72 369.191 100.76C367.271 103.72 364.951 105.72 362.231 106.76C369.111 107.88 374.431 110.76 378.191 115.4C381.951 120.04 383.831 126.12 383.831 133.64C383.831 139.64 382.511 144.96 379.871 149.6C377.231 154.16 373.591 157.72 368.951 160.28C364.391 162.76 359.311 164 353.711 164H349.871V74ZM354.671 105.68C358.511 105.68 361.751 104.28 364.391 101.48C367.031 98.68 368.351 95.24 368.351 91.16C368.351 86.6 367.231 83.16 364.991 80.84C362.831 78.52 359.391 77.36 354.671 77.36H353.711V105.68H354.671ZM354.671 160.64C359.391 160.64 363.671 159.52 367.511 157.28C371.351 154.96 374.391 151.76 376.631 147.68C378.871 143.6 379.991 139 379.991 133.88C379.991 125.64 377.791 119.44 373.391 115.28C369.071 111.04 362.831 108.92 354.671 108.92H353.711V160.64H354.671ZM422.629 162.08C426.789 162.08 430.749 161 434.509 158.84C438.269 156.68 441.389 153.72 443.869 149.96V156.08C440.909 159.36 437.669 161.76 434.149 163.28C430.629 164.72 426.629 165.44 422.149 165.44C417.189 165.44 412.509 164.12 408.109 161.48C403.789 158.84 400.309 155.32 397.669 150.92C395.109 146.52 393.829 141.84 393.829 136.88C393.829 131.52 395.109 126.72 397.669 122.48C400.229 118.16 403.709 114.8 408.109 112.4C412.589 110 417.549 108.8 422.989 108.8C431.309 108.8 438.389 112.08 444.229 118.64L406.549 155.84C409.189 158 411.749 159.6 414.229 160.64C416.709 161.6 419.509 162.08 422.629 162.08ZM397.669 136.52C397.669 143.16 399.869 148.84 404.269 153.56L439.429 118.64C436.789 116.32 434.229 114.68 431.749 113.72C429.269 112.68 426.309 112.16 422.869 112.16C417.989 112.16 413.629 113.24 409.789 115.4C406.029 117.48 403.069 120.36 400.909 124.04C398.749 127.72 397.669 131.88 397.669 136.52ZM484.552 165.32C479.672 165.32 474.952 164 470.392 161.36C465.912 158.72 462.472 155.24 460.072 150.92V164H456.232V74H460.072V123.68C462.232 119.12 465.592 115.48 470.152 112.76C474.712 110.04 479.512 108.68 484.552 108.68C489.752 108.68 494.512 109.96 498.832 112.52C503.232 115.08 506.712 118.52 509.272 122.84C511.832 127.16 513.112 131.88 513.112 137C513.112 142.12 511.832 146.84 509.272 151.16C506.712 155.48 503.232 158.92 498.832 161.48C494.512 164.04 489.752 165.32 484.552 165.32ZM484.792 161.96C489.192 161.96 493.272 160.84 497.032 158.6C500.792 156.28 503.752 153.24 505.912 149.48C508.152 145.64 509.272 141.48 509.272 137C509.272 132.6 508.152 128.48 505.912 124.64C503.672 120.8 500.672 117.76 496.912 115.52C493.152 113.2 489.072 112.04 484.672 112.04C480.272 112.04 476.152 113.2 472.312 115.52C468.552 117.84 465.512 120.92 463.192 124.76C460.952 128.6 459.832 132.72 459.832 137.12C459.832 141.52 460.952 145.64 463.192 149.48C465.512 153.24 468.592 156.28 472.432 158.6C476.272 160.84 480.392 161.96 484.792 161.96ZM529.818 97.64C528.698 97.64 527.698 97.24 526.818 96.44C526.018 95.64 525.618 94.64 525.618 93.44C525.618 92.32 526.018 91.36 526.818 90.56C527.698 89.76 528.698 89.36 529.818 89.36C530.938 89.36 531.898 89.76 532.698 90.56C533.578 91.36 534.018 92.32 534.018 93.44C534.018 94.64 533.578 95.64 532.698 96.44C531.898 97.24 530.938 97.64 529.818 97.64ZM527.898 110H531.738V164H527.898V110ZM575.07 165.32C569.87 165.32 565.07 164.04 560.67 161.48C556.35 158.92 552.91 155.48 550.35 151.16C547.79 146.84 546.51 142.12 546.51 137C546.51 131.88 547.79 127.16 550.35 122.84C552.91 118.52 556.35 115.08 560.67 112.52C565.07 109.96 569.87 108.68 575.07 108.68C580.11 108.68 584.91 110.04 589.47 112.76C594.03 115.4 597.39 118.88 599.55 123.2V74H603.39V164H599.55V150.92C597.15 155.24 593.67 158.72 589.11 161.36C584.63 164 579.95 165.32 575.07 165.32ZM574.95 161.96C579.35 161.96 583.43 160.84 587.19 158.6C591.03 156.28 594.07 153.24 596.31 149.48C598.63 145.64 599.79 141.52 599.79 137.12C599.79 132.72 598.63 128.6 596.31 124.76C594.07 120.92 591.03 117.84 587.19 115.52C583.43 113.2 579.35 112.04 574.95 112.04C570.55 112.04 566.47 113.2 562.71 115.52C558.95 117.76 555.95 120.8 553.71 124.64C551.47 128.48 550.35 132.6 550.35 137C550.35 141.48 551.43 145.64 553.59 149.48C555.83 153.24 558.83 156.28 562.59 158.6C566.43 160.84 570.55 161.96 574.95 161.96ZM643.977 165.32C638.857 165.32 634.097 164.04 629.697 161.48C625.297 158.92 621.817 155.48 619.257 151.16C616.697 146.76 615.417 142.04 615.417 137C615.417 131.96 616.697 127.28 619.257 122.96C621.817 118.56 625.297 115.08 629.697 112.52C634.097 109.96 638.857 108.68 643.977 108.68C649.177 108.68 654.097 110.08 658.737 112.88C663.377 115.6 666.617 119.16 668.457 123.56V110H672.297V164H668.457V150.56C666.297 155.04 662.937 158.64 658.377 161.36C653.897 164 649.097 165.32 643.977 165.32ZM644.217 161.96C648.617 161.96 652.697 160.84 656.457 158.6C660.217 156.28 663.177 153.24 665.337 149.48C667.577 145.64 668.697 141.48 668.697 137C668.697 132.6 667.577 128.48 665.337 124.64C663.097 120.8 660.097 117.76 656.337 115.52C652.577 113.2 648.497 112.04 644.097 112.04C639.697 112.04 635.577 113.2 631.737 115.52C627.977 117.84 624.937 120.92 622.617 124.76C620.377 128.6 619.257 132.72 619.257 137.12C619.257 141.52 620.377 145.64 622.617 149.48C624.937 153.24 628.017 156.28 631.857 158.6C635.697 160.84 639.817 161.96 644.217 161.96ZM700.523 165.32C696.683 165.32 693.283 164.68 690.323 163.4C687.363 162.04 685.243 160.32 683.963 158.24V151.88C685.483 155.32 687.563 157.88 690.203 159.56C692.843 161.16 696.203 161.96 700.283 161.96C704.203 161.96 707.363 160.76 709.763 158.36C712.163 155.88 713.363 152.72 713.363 148.88C713.363 145.6 712.683 143.08 711.323 141.32C709.963 139.48 707.763 137.64 704.723 135.8L700.163 133.16C696.883 131.16 694.403 129.6 692.723 128.48C691.123 127.28 689.843 125.96 688.883 124.52C687.923 123 687.443 121.24 687.443 119.24C687.443 116.04 688.563 113.48 690.803 111.56C693.043 109.64 695.963 108.68 699.563 108.68C703.963 108.68 707.643 109.68 710.603 111.68V116.96C708.123 113.68 704.563 112.04 699.923 112.04C697.363 112.04 695.283 112.68 693.683 113.96C692.083 115.24 691.283 116.88 691.283 118.88C691.283 120.64 691.763 122.2 692.723 123.56C693.683 124.84 695.003 126.04 696.683 127.16C698.443 128.28 701.323 129.96 705.323 132.2C709.403 134.52 712.403 136.92 714.323 139.4C716.243 141.8 717.203 144.96 717.203 148.88C717.203 153.84 715.563 157.84 712.283 160.88C709.083 163.84 705.163 165.32 700.523 165.32Z"/>
</mask>
<path d="M62.7584 74H66.7184C76.1584 74 83.5184 76.52 88.7984 81.56C94.0784 86.52 96.7184 93.2 96.7184 101.6C96.7184 107.44 95.4384 112.64 92.8784 117.2C90.3184 121.68 86.8384 125.16 82.4384 127.64C78.0384 130.04 73.1184 131.24 67.6784 131.24H66.7184V164H62.7584V74ZM67.9184 127.76C75.1984 127.76 81.1584 125.52 85.7984 121.04C90.4384 116.48 92.7584 110.08 92.7584 101.84C92.7584 94 90.5584 88 86.1584 83.84C81.8384 79.6 75.6784 77.48 67.6784 77.48H66.7184V127.76H67.9184ZM108.537 110H112.377V122.48C113.977 118.56 116.297 115.48 119.337 113.24C122.457 111 125.977 109.88 129.897 109.88C132.377 109.88 134.897 110.4 137.457 111.44V115.88C135.137 114.12 132.537 113.24 129.657 113.24C126.777 113.24 123.977 114.12 121.257 115.88C118.617 117.64 116.457 120 114.777 122.96C113.177 125.92 112.377 129.08 112.377 132.44V164H108.537V110ZM151.654 97.64C150.534 97.64 149.534 97.24 148.654 96.44C147.854 95.64 147.454 94.64 147.454 93.44C147.454 92.32 147.854 91.36 148.654 90.56C149.534 89.76 150.534 89.36 151.654 89.36C152.774 89.36 153.734 89.76 154.534 90.56C155.414 91.36 155.854 92.32 155.854 93.44C155.854 94.64 155.414 95.64 154.534 96.44C153.734 97.24 152.774 97.64 151.654 97.64ZM149.734 110H153.574V164H149.734V110ZM171.466 110H175.306V118.16C178.986 111.84 184.906 108.68 193.066 108.68C196.986 108.68 200.386 109.8 203.266 112.04C206.146 114.2 208.146 117.48 209.266 121.88C210.306 117.96 212.586 114.8 216.106 112.4C219.706 109.92 223.746 108.68 228.226 108.68C234.066 108.68 238.586 110.4 241.786 113.84C244.986 117.2 246.586 122 246.586 128.24V164H242.746V128.24C242.746 123.2 241.426 119.24 238.786 116.36C236.226 113.48 232.826 112.04 228.586 112.04C225.386 112.04 222.426 112.84 219.706 114.44C216.986 115.96 214.826 118.04 213.226 120.68C211.626 123.32 210.826 126.24 210.826 129.44V164H206.986V130.4C206.986 124.64 205.626 120.16 202.906 116.96C200.186 113.68 196.666 112.04 192.346 112.04C189.466 112.04 186.706 112.76 184.066 114.2C181.506 115.64 179.386 117.6 177.706 120.08C176.106 122.48 175.306 125.12 175.306 128V164H171.466V110ZM287.981 162.08C292.141 162.08 296.101 161 299.861 158.84C303.621 156.68 306.741 153.72 309.221 149.96V156.08C306.261 159.36 303.021 161.76 299.501 163.28C295.981 164.72 291.981 165.44 287.501 165.44C282.541 165.44 277.861 164.12 273.461 161.48C269.141 158.84 265.661 155.32 263.021 150.92C260.461 146.52 259.181 141.84 259.181 136.88C259.181 131.52 260.461 126.72 263.021 122.48C265.581 118.16 269.061 114.8 273.461 112.4C277.941 110 282.901 108.8 288.341 108.8C296.661 108.8 303.741 112.08 309.581 118.64L271.901 155.84C274.541 158 277.101 159.6 279.581 160.64C282.061 161.6 284.861 162.08 287.981 162.08ZM263.021 136.52C263.021 143.16 265.221 148.84 269.621 153.56L304.781 118.64C302.141 116.32 299.581 114.68 297.101 113.72C294.621 112.68 291.661 112.16 288.221 112.16C283.341 112.16 278.981 113.24 275.141 115.4C271.381 117.48 268.421 120.36 266.261 124.04C264.101 127.72 263.021 131.88 263.021 136.52ZM349.871 74H353.711C360.031 74 364.671 75.48 367.631 78.44C370.591 81.32 372.071 85.6 372.071 91.28C372.071 94.56 371.111 97.72 369.191 100.76C367.271 103.72 364.951 105.72 362.231 106.76C369.111 107.88 374.431 110.76 378.191 115.4C381.951 120.04 383.831 126.12 383.831 133.64C383.831 139.64 382.511 144.96 379.871 149.6C377.231 154.16 373.591 157.72 368.951 160.28C364.391 162.76 359.311 164 353.711 164H349.871V74ZM354.671 105.68C358.511 105.68 361.751 104.28 364.391 101.48C367.031 98.68 368.351 95.24 368.351 91.16C368.351 86.6 367.231 83.16 364.991 80.84C362.831 78.52 359.391 77.36 354.671 77.36H353.711V105.68H354.671ZM354.671 160.64C359.391 160.64 363.671 159.52 367.511 157.28C371.351 154.96 374.391 151.76 376.631 147.68C378.871 143.6 379.991 139 379.991 133.88C379.991 125.64 377.791 119.44 373.391 115.28C369.071 111.04 362.831 108.92 354.671 108.92H353.711V160.64H354.671ZM422.629 162.08C426.789 162.08 430.749 161 434.509 158.84C438.269 156.68 441.389 153.72 443.869 149.96V156.08C440.909 159.36 437.669 161.76 434.149 163.28C430.629 164.72 426.629 165.44 422.149 165.44C417.189 165.44 412.509 164.12 408.109 161.48C403.789 158.84 400.309 155.32 397.669 150.92C395.109 146.52 393.829 141.84 393.829 136.88C393.829 131.52 395.109 126.72 397.669 122.48C400.229 118.16 403.709 114.8 408.109 112.4C412.589 110 417.549 108.8 422.989 108.8C431.309 108.8 438.389 112.08 444.229 118.64L406.549 155.84C409.189 158 411.749 159.6 414.229 160.64C416.709 161.6 419.509 162.08 422.629 162.08ZM397.669 136.52C397.669 143.16 399.869 148.84 404.269 153.56L439.429 118.64C436.789 116.32 434.229 114.68 431.749 113.72C429.269 112.68 426.309 112.16 422.869 112.16C417.989 112.16 413.629 113.24 409.789 115.4C406.029 117.48 403.069 120.36 400.909 124.04C398.749 127.72 397.669 131.88 397.669 136.52ZM484.552 165.32C479.672 165.32 474.952 164 470.392 161.36C465.912 158.72 462.472 155.24 460.072 150.92V164H456.232V74H460.072V123.68C462.232 119.12 465.592 115.48 470.152 112.76C474.712 110.04 479.512 108.68 484.552 108.68C489.752 108.68 494.512 109.96 498.832 112.52C503.232 115.08 506.712 118.52 509.272 122.84C511.832 127.16 513.112 131.88 513.112 137C513.112 142.12 511.832 146.84 509.272 151.16C506.712 155.48 503.232 158.92 498.832 161.48C494.512 164.04 489.752 165.32 484.552 165.32ZM484.792 161.96C489.192 161.96 493.272 160.84 497.032 158.6C500.792 156.28 503.752 153.24 505.912 149.48C508.152 145.64 509.272 141.48 509.272 137C509.272 132.6 508.152 128.48 505.912 124.64C503.672 120.8 500.672 117.76 496.912 115.52C493.152 113.2 489.072 112.04 484.672 112.04C480.272 112.04 476.152 113.2 472.312 115.52C468.552 117.84 465.512 120.92 463.192 124.76C460.952 128.6 459.832 132.72 459.832 137.12C459.832 141.52 460.952 145.64 463.192 149.48C465.512 153.24 468.592 156.28 472.432 158.6C476.272 160.84 480.392 161.96 484.792 161.96ZM529.818 97.64C528.698 97.64 527.698 97.24 526.818 96.44C526.018 95.64 525.618 94.64 525.618 93.44C525.618 92.32 526.018 91.36 526.818 90.56C527.698 89.76 528.698 89.36 529.818 89.36C530.938 89.36 531.898 89.76 532.698 90.56C533.578 91.36 534.018 92.32 534.018 93.44C534.018 94.64 533.578 95.64 532.698 96.44C531.898 97.24 530.938 97.64 529.818 97.64ZM527.898 110H531.738V164H527.898V110ZM575.07 165.32C569.87 165.32 565.07 164.04 560.67 161.48C556.35 158.92 552.91 155.48 550.35 151.16C547.79 146.84 546.51 142.12 546.51 137C546.51 131.88 547.79 127.16 550.35 122.84C552.91 118.52 556.35 115.08 560.67 112.52C565.07 109.96 569.87 108.68 575.07 108.68C580.11 108.68 584.91 110.04 589.47 112.76C594.03 115.4 597.39 118.88 599.55 123.2V74H603.39V164H599.55V150.92C597.15 155.24 593.67 158.72 589.11 161.36C584.63 164 579.95 165.32 575.07 165.32ZM574.95 161.96C579.35 161.96 583.43 160.84 587.19 158.6C591.03 156.28 594.07 153.24 596.31 149.48C598.63 145.64 599.79 141.52 599.79 137.12C599.79 132.72 598.63 128.6 596.31 124.76C594.07 120.92 591.03 117.84 587.19 115.52C583.43 113.2 579.35 112.04 574.95 112.04C570.55 112.04 566.47 113.2 562.71 115.52C558.95 117.76 555.95 120.8 553.71 124.64C551.47 128.48 550.35 132.6 550.35 137C550.35 141.48 551.43 145.64 553.59 149.48C555.83 153.24 558.83 156.28 562.59 158.6C566.43 160.84 570.55 161.96 574.95 161.96ZM643.977 165.32C638.857 165.32 634.097 164.04 629.697 161.48C625.297 158.92 621.817 155.48 619.257 151.16C616.697 146.76 615.417 142.04 615.417 137C615.417 131.96 616.697 127.28 619.257 122.96C621.817 118.56 625.297 115.08 629.697 112.52C634.097 109.96 638.857 108.68 643.977 108.68C649.177 108.68 654.097 110.08 658.737 112.88C663.377 115.6 666.617 119.16 668.457 123.56V110H672.297V164H668.457V150.56C666.297 155.04 662.937 158.64 658.377 161.36C653.897 164 649.097 165.32 643.977 165.32ZM644.217 161.96C648.617 161.96 652.697 160.84 656.457 158.6C660.217 156.28 663.177 153.24 665.337 149.48C667.577 145.64 668.697 141.48 668.697 137C668.697 132.6 667.577 128.48 665.337 124.64C663.097 120.8 660.097 117.76 656.337 115.52C652.577 113.2 648.497 112.04 644.097 112.04C639.697 112.04 635.577 113.2 631.737 115.52C627.977 117.84 624.937 120.92 622.617 124.76C620.377 128.6 619.257 132.72 619.257 137.12C619.257 141.52 620.377 145.64 622.617 149.48C624.937 153.24 628.017 156.28 631.857 158.6C635.697 160.84 639.817 161.96 644.217 161.96ZM700.523 165.32C696.683 165.32 693.283 164.68 690.323 163.4C687.363 162.04 685.243 160.32 683.963 158.24V151.88C685.483 155.32 687.563 157.88 690.203 159.56C692.843 161.16 696.203 161.96 700.283 161.96C704.203 161.96 707.363 160.76 709.763 158.36C712.163 155.88 713.363 152.72 713.363 148.88C713.363 145.6 712.683 143.08 711.323 141.32C709.963 139.48 707.763 137.64 704.723 135.8L700.163 133.16C696.883 131.16 694.403 129.6 692.723 128.48C691.123 127.28 689.843 125.96 688.883 124.52C687.923 123 687.443 121.24 687.443 119.24C687.443 116.04 688.563 113.48 690.803 111.56C693.043 109.64 695.963 108.68 699.563 108.68C703.963 108.68 707.643 109.68 710.603 111.68V116.96C708.123 113.68 704.563 112.04 699.923 112.04C697.363 112.04 695.283 112.68 693.683 113.96C692.083 115.24 691.283 116.88 691.283 118.88C691.283 120.64 691.763 122.2 692.723 123.56C693.683 124.84 695.003 126.04 696.683 127.16C698.443 128.28 701.323 129.96 705.323 132.2C709.403 134.52 712.403 136.92 714.323 139.4C716.243 141.8 717.203 144.96 717.203 148.88C717.203 153.84 715.563 157.84 712.283 160.88C709.083 163.84 705.163 165.32 700.523 165.32Z" fill="white"/>
<path d="M62.7584 74V72H60.7584V74H62.7584ZM88.7984 81.56L87.4175 83.0067L87.4233 83.0122L87.4291 83.0177L88.7984 81.56ZM92.8784 117.2L94.6149 118.192L94.6187 118.186L94.6224 118.179L92.8784 117.2ZM82.4384 127.64L83.3961 129.396L83.4084 129.389L83.4205 129.382L82.4384 127.64ZM66.7184 131.24V129.24H64.7184V131.24H66.7184ZM66.7184 164V166H68.7184V164H66.7184ZM62.7584 164H60.7584V166H62.7584V164ZM85.7984 121.04L87.1876 122.479L87.194 122.473L87.2003 122.466L85.7984 121.04ZM86.1584 83.84L84.7575 85.2674L84.7708 85.2805L84.7844 85.2933L86.1584 83.84ZM66.7184 77.48V75.48H64.7184V77.48H66.7184ZM66.7184 127.76H64.7184V129.76H66.7184V127.76ZM62.7584 76H66.7184V72H62.7584V76ZM66.7184 76C75.8005 76 82.6091 78.4169 87.4175 83.0067L90.1794 80.1133C84.4278 74.6231 76.5164 72 66.7184 72V76ZM87.4291 83.0177C92.2415 87.5385 94.7184 93.6559 94.7184 101.6H98.7184C98.7184 92.7441 95.9154 85.5015 90.1678 80.1023L87.4291 83.0177ZM94.7184 101.6C94.7184 107.138 93.5077 111.994 91.1345 116.221L94.6224 118.179C97.3692 113.286 98.7184 107.742 98.7184 101.6H94.7184ZM91.142 116.208C88.7571 120.381 85.5348 123.599 81.4564 125.898L83.4205 129.382C88.1421 126.721 91.8798 122.979 94.6149 118.192L91.142 116.208ZM81.4807 125.884C77.3992 128.11 72.8131 129.24 67.6784 129.24V133.24C73.4238 133.24 78.6777 131.97 83.3961 129.396L81.4807 125.884ZM67.6784 129.24H66.7184V133.24H67.6784V129.24ZM64.7184 131.24V164H68.7184V131.24H64.7184ZM66.7184 162H62.7584V166H66.7184V162ZM64.7584 164V74H60.7584V164H64.7584ZM67.9184 129.76C75.6444 129.76 82.1258 127.366 87.1876 122.479L84.4092 119.601C80.1911 123.674 74.7525 125.76 67.9184 125.76V129.76ZM87.2003 122.466C92.3185 117.436 94.7584 110.466 94.7584 101.84H90.7584C90.7584 109.694 88.5583 115.524 84.3966 119.614L87.2003 122.466ZM94.7584 101.84C94.7584 93.6208 92.4411 87.0276 87.5325 82.3867L84.7844 85.2933C88.6758 88.9724 90.7584 94.3792 90.7584 101.84H94.7584ZM87.5594 82.4126C82.7572 77.6994 76.0282 75.48 67.6784 75.48V79.48C75.3286 79.48 80.9196 81.5006 84.7575 85.2674L87.5594 82.4126ZM67.6784 75.48H66.7184V79.48H67.6784V75.48ZM64.7184 77.48V127.76H68.7184V77.48H64.7184ZM66.7184 129.76H67.9184V125.76H66.7184V129.76ZM108.537 110V108H106.537V110H108.537ZM112.377 110H114.377V108H112.377V110ZM112.377 122.48H110.377L114.228 123.236L112.377 122.48ZM119.337 113.24L118.17 111.615L118.16 111.623L118.15 111.63L119.337 113.24ZM137.457 111.44H139.457V110.094L138.209 109.587L137.457 111.44ZM137.457 115.88L136.248 117.473L139.457 119.908V115.88H137.457ZM121.257 115.88L120.17 114.201L120.159 114.208L120.147 114.216L121.257 115.88ZM114.777 122.96L113.037 121.973L113.027 121.991L113.017 122.009L114.777 122.96ZM112.377 164V166H114.377V164H112.377ZM108.537 164H106.537V166H108.537V164ZM108.537 112H112.377V108H108.537V112ZM110.377 110V122.48H114.377V110H110.377ZM114.228 123.236C115.707 119.614 117.814 116.846 120.523 114.85L118.15 111.63C114.779 114.114 112.247 117.506 110.525 121.724L114.228 123.236ZM120.503 114.865C123.276 112.874 126.386 111.88 129.897 111.88V107.88C125.567 107.88 121.638 109.126 118.17 111.615L120.503 114.865ZM129.897 111.88C132.091 111.88 134.356 112.339 136.704 113.293L138.209 109.587C135.438 108.461 132.663 107.88 129.897 107.88V111.88ZM135.457 111.44V115.88H139.457V111.44H135.457ZM138.665 114.287C136.002 112.266 132.978 111.24 129.657 111.24V115.24C132.095 115.24 134.271 115.974 136.248 117.473L138.665 114.287ZM129.657 111.24C126.344 111.24 123.172 112.258 120.17 114.201L122.343 117.559C124.781 115.982 127.209 115.24 129.657 115.24V111.24ZM120.147 114.216C117.229 116.162 114.86 118.761 113.037 121.973L116.516 123.947C118.053 121.239 120.005 119.118 122.366 117.544L120.147 114.216ZM113.017 122.009C111.259 125.261 110.377 128.747 110.377 132.44H114.377C114.377 129.413 115.094 126.579 116.536 123.911L113.017 122.009ZM110.377 132.44V164H114.377V132.44H110.377ZM112.377 162H108.537V166H112.377V162ZM110.537 164V110H106.537V164H110.537ZM148.654 96.44L147.24 97.8542L147.274 97.8879L147.309 97.9199L148.654 96.44ZM148.654 90.56L147.309 89.0801L147.274 89.1121L147.24 89.1458L148.654 90.56ZM154.534 90.56L153.12 91.9742L153.154 92.0079L153.189 92.0399L154.534 90.56ZM154.534 96.44L153.189 94.9601L153.154 94.9921L153.12 95.0258L154.534 96.44ZM149.734 110V108H147.734V110H149.734ZM153.574 110H155.574V108H153.574V110ZM153.574 164V166H155.574V164H153.574ZM149.734 164H147.734V166H149.734V164ZM151.654 95.64C151.064 95.64 150.536 95.4481 149.999 94.9601L147.309 97.9199C148.532 99.0319 150.004 99.64 151.654 99.64V95.64ZM150.068 95.0258C149.668 94.6254 149.454 94.1453 149.454 93.44H145.454C145.454 95.1347 146.04 96.6546 147.24 97.8542L150.068 95.0258ZM149.454 93.44C149.454 92.8564 149.639 92.4034 150.068 91.9742L147.24 89.1458C146.069 90.3166 145.454 91.7835 145.454 93.44H149.454ZM149.999 92.0399C150.536 91.5519 151.064 91.36 151.654 91.36V87.36C150.004 87.36 148.532 87.9681 147.309 89.0801L149.999 92.0399ZM151.654 91.36C152.238 91.36 152.691 91.545 153.12 91.9742L155.948 89.1458C154.777 87.975 153.311 87.36 151.654 87.36V91.36ZM153.189 92.0399C153.681 92.4873 153.854 92.9216 153.854 93.44H157.854C157.854 91.7184 157.147 90.2327 155.879 89.0801L153.189 92.0399ZM153.854 93.44C153.854 94.0823 153.647 94.543 153.189 94.9601L155.879 97.9199C157.181 96.737 157.854 95.1977 157.854 93.44H153.854ZM153.12 95.0258C152.691 95.455 152.238 95.64 151.654 95.64V99.64C153.311 99.64 154.777 99.025 155.948 97.8542L153.12 95.0258ZM149.734 112H153.574V108H149.734V112ZM151.574 110V164H155.574V110H151.574ZM153.574 162H149.734V166H153.574V162ZM151.734 164V110H147.734V164H151.734ZM171.466 110V108H169.466V110H171.466ZM175.306 110H177.306V108H175.306V110ZM175.306 118.16H173.306V125.569L177.035 119.166L175.306 118.16ZM203.266 112.04L202.038 113.619L202.052 113.629L202.066 113.64L203.266 112.04ZM209.266 121.88L207.328 122.373L209.226 129.83L211.199 122.393L209.266 121.88ZM216.106 112.4L217.233 114.052L217.241 114.047L216.106 112.4ZM241.786 113.84L240.322 115.202L240.33 115.211L240.338 115.219L241.786 113.84ZM246.586 164V166H248.586V164H246.586ZM242.746 164H240.746V166H242.746V164ZM238.786 116.36L237.291 117.689L237.302 117.7L237.312 117.711L238.786 116.36ZM219.706 114.44L220.682 116.186L220.701 116.175L220.72 116.164L219.706 114.44ZM213.226 120.68L211.516 119.643L211.516 119.643L213.226 120.68ZM210.826 164V166H212.826V164H210.826ZM206.986 164H204.986V166H206.986V164ZM202.906 116.96L201.367 118.237L201.374 118.246L201.382 118.255L202.906 116.96ZM184.066 114.2L183.109 112.444L183.097 112.45L183.086 112.457L184.066 114.2ZM177.706 120.08L176.05 118.958L176.046 118.964L176.042 118.971L177.706 120.08ZM175.306 164V166H177.306V164H175.306ZM171.466 164H169.466V166H171.466V164ZM171.466 112H175.306V108H171.466V112ZM173.306 110V118.16H177.306V110H173.306ZM177.035 119.166C180.309 113.543 185.519 110.68 193.066 110.68V106.68C184.294 106.68 177.663 110.137 173.578 117.154L177.035 119.166ZM193.066 110.68C196.577 110.68 199.536 111.673 202.038 113.619L204.494 110.461C201.236 107.927 197.396 106.68 193.066 106.68V110.68ZM202.066 113.64C204.494 115.461 206.291 118.298 207.328 122.373L211.204 121.387C210.002 116.662 207.798 112.939 204.466 110.44L202.066 113.64ZM211.199 122.393C212.11 118.962 214.088 116.197 217.233 114.052L214.98 110.748C211.084 113.403 208.503 116.958 207.333 121.367L211.199 122.393ZM217.241 114.047C220.498 111.803 224.141 110.68 228.226 110.68V106.68C223.352 106.68 218.914 108.037 214.972 110.753L217.241 114.047ZM228.226 110.68C233.655 110.68 237.589 112.264 240.322 115.202L243.251 112.478C239.584 108.536 234.477 106.68 228.226 106.68V110.68ZM240.338 115.219C243.076 118.094 244.586 122.333 244.586 128.24H248.586C248.586 121.667 246.896 116.306 243.235 112.461L240.338 115.219ZM244.586 128.24V164H248.586V128.24H244.586ZM246.586 162H242.746V166H246.586V162ZM244.746 164V128.24H240.746V164H244.746ZM244.746 128.24C244.746 122.849 243.328 118.355 240.261 115.009L237.312 117.711C239.525 120.125 240.746 123.551 240.746 128.24H244.746ZM240.281 115.031C237.301 111.679 233.333 110.04 228.586 110.04V114.04C232.319 114.04 235.152 115.281 237.291 117.689L240.281 115.031ZM228.586 110.04C225.035 110.04 221.724 110.933 218.692 112.716L220.72 116.164C223.128 114.747 225.738 114.04 228.586 114.04V110.04ZM218.731 112.694C215.711 114.381 213.297 116.704 211.516 119.643L214.937 121.717C216.355 119.376 218.261 117.539 220.682 116.186L218.731 112.694ZM211.516 119.643C209.719 122.608 208.826 125.889 208.826 129.44H212.826C212.826 126.591 213.533 124.032 214.937 121.717L211.516 119.643ZM208.826 129.44V164H212.826V129.44H208.826ZM210.826 162H206.986V166H210.826V162ZM208.986 164V130.4H204.986V164H208.986ZM208.986 130.4C208.986 124.342 207.555 119.341 204.43 115.665L201.382 118.255C203.698 120.979 204.986 124.938 204.986 130.4H208.986ZM204.446 115.683C201.34 111.938 197.252 110.04 192.346 110.04V114.04C196.081 114.04 199.033 115.422 201.367 118.237L204.446 115.683ZM192.346 110.04C189.117 110.04 186.029 110.851 183.109 112.444L185.024 115.956C187.384 114.669 189.816 114.04 192.346 114.04V110.04ZM183.086 112.457C180.25 114.052 177.901 116.227 176.05 118.958L179.362 121.202C180.872 118.973 182.763 117.228 185.047 115.943L183.086 112.457ZM176.042 118.971C174.223 121.699 173.306 124.724 173.306 128H177.306C177.306 125.515 177.989 123.261 179.37 121.189L176.042 118.971ZM173.306 128V164H177.306V128H173.306ZM175.306 162H171.466V166H175.306V162ZM173.466 164V110H169.466V164H173.466ZM299.861 158.84L298.864 157.106L298.864 157.106L299.861 158.84ZM309.221 149.96H311.221V143.295L307.551 148.859L309.221 149.96ZM309.221 156.08L310.705 157.42L311.221 156.849V156.08H309.221ZM299.501 163.28L300.258 165.131L300.276 165.124L300.293 165.116L299.501 163.28ZM273.461 161.48L272.418 163.187L272.425 163.191L272.432 163.195L273.461 161.48ZM263.021 150.92L261.292 151.926L261.299 151.937L261.306 151.949L263.021 150.92ZM263.021 122.48L264.733 123.514L264.737 123.507L264.741 123.5L263.021 122.48ZM273.461 112.4L272.516 110.637L272.51 110.641L272.503 110.644L273.461 112.4ZM309.581 118.64L310.986 120.063L312.337 118.729L311.074 117.31L309.581 118.64ZM271.901 155.84L270.496 154.417L268.913 155.979L270.634 157.388L271.901 155.84ZM279.581 160.64L278.807 162.484L278.833 162.495L278.859 162.505L279.581 160.64ZM269.621 153.56L268.158 154.924L269.565 156.434L271.03 154.979L269.621 153.56ZM304.781 118.64L306.19 120.059L307.709 118.551L306.101 117.138L304.781 118.64ZM297.101 113.72L296.327 115.564L296.353 115.575L296.379 115.585L297.101 113.72ZM275.141 115.4L276.109 117.15L276.115 117.147L276.121 117.143L275.141 115.4ZM287.981 164.08C292.505 164.08 296.807 162.901 300.857 160.574L298.864 157.106C295.394 159.099 291.776 160.08 287.981 160.08V164.08ZM300.857 160.574C304.898 158.253 308.245 155.071 310.89 151.061L307.551 148.859C305.236 152.369 302.343 155.107 298.864 157.106L300.857 160.574ZM307.221 149.96V156.08H311.221V149.96H307.221ZM307.736 154.74C304.939 157.839 301.927 160.054 298.708 161.444L300.293 165.116C304.114 163.466 307.582 160.881 310.705 157.42L307.736 154.74ZM298.743 161.429C295.502 162.755 291.766 163.44 287.501 163.44V167.44C292.195 167.44 296.459 166.685 300.258 165.131L298.743 161.429ZM287.501 163.44C282.916 163.44 278.59 162.225 274.49 159.765L272.432 163.195C277.131 166.015 282.165 167.44 287.501 167.44V163.44ZM274.504 159.773C270.463 157.304 267.212 154.018 264.736 149.891L261.306 151.949C264.109 156.622 267.818 160.376 272.418 163.187L274.504 159.773ZM264.749 149.914C262.362 145.811 261.181 141.477 261.181 136.88H257.181C257.181 142.203 258.559 147.229 261.292 151.926L264.749 149.914ZM261.181 136.88C261.181 131.853 262.377 127.416 264.733 123.514L261.308 121.446C258.545 126.024 257.181 131.187 257.181 136.88H261.181ZM264.741 123.5C267.118 119.489 270.335 116.383 274.418 114.156L272.503 110.644C267.786 113.217 264.043 116.831 261.3 121.46L264.741 123.5ZM274.405 114.163C278.574 111.929 283.206 110.8 288.341 110.8V106.8C282.595 106.8 277.307 108.071 272.516 110.637L274.405 114.163ZM288.341 110.8C296.055 110.8 302.602 113.809 308.087 119.97L311.074 117.31C304.879 110.351 297.266 106.8 288.341 106.8V110.8ZM308.176 117.217L270.496 154.417L273.306 157.263L310.986 120.063L308.176 117.217ZM270.634 157.388C273.385 159.639 276.109 161.353 278.807 162.484L280.354 158.796C278.092 157.847 275.696 156.361 273.167 154.292L270.634 157.388ZM278.859 162.505C281.605 163.568 284.656 164.08 287.981 164.08V160.08C285.066 160.08 282.516 159.632 280.303 158.775L278.859 162.505ZM261.021 136.52C261.021 143.65 263.402 149.822 268.158 154.924L271.084 152.196C267.04 147.858 265.021 142.67 265.021 136.52H261.021ZM271.03 154.979L306.19 120.059L303.371 117.221L268.211 152.141L271.03 154.979ZM306.101 117.138C303.338 114.71 300.58 112.922 297.823 111.855L296.379 115.585C298.582 116.438 300.943 117.93 303.46 120.142L306.101 117.138ZM297.874 111.876C295.091 110.709 291.855 110.16 288.221 110.16V114.16C291.466 114.16 294.15 114.651 296.327 115.564L297.874 111.876ZM288.221 110.16C283.035 110.16 278.331 111.311 274.16 113.657L276.121 117.143C279.63 115.169 283.646 114.16 288.221 114.16V110.16ZM274.173 113.65C270.101 115.902 266.879 119.036 264.536 123.028L267.985 125.052C269.963 121.684 272.66 119.058 276.109 117.15L274.173 113.65ZM264.536 123.028C262.18 127.041 261.021 131.556 261.021 136.52H265.021C265.021 132.204 266.021 128.399 267.985 125.052L264.536 123.028ZM349.871 74V72H347.871V74H349.871ZM367.631 78.44L366.216 79.8542L366.226 79.8639L366.236 79.8734L367.631 78.44ZM369.191 100.76L370.869 101.848L370.875 101.838L370.882 101.828L369.191 100.76ZM362.231 106.76L361.516 104.892L354.586 107.542L361.909 108.734L362.231 106.76ZM378.191 115.4L379.744 114.141L379.744 114.141L378.191 115.4ZM379.871 149.6L381.601 150.602L381.605 150.596L381.609 150.589L379.871 149.6ZM368.951 160.28L369.906 162.037L369.917 162.031L368.951 160.28ZM349.871 164H347.871V166H349.871V164ZM364.391 101.48L365.846 102.852L365.846 102.852L364.391 101.48ZM364.991 80.84L363.527 82.2028L363.539 82.2161L363.552 82.2292L364.991 80.84ZM353.711 77.36V75.36H351.711V77.36H353.711ZM353.711 105.68H351.711V107.68H353.711V105.68ZM367.511 157.28L368.518 159.008L368.532 159L368.545 158.992L367.511 157.28ZM376.631 147.68L374.877 146.717L374.877 146.717L376.631 147.68ZM373.391 115.28L371.99 116.707L372.003 116.72L372.017 116.733L373.391 115.28ZM353.711 108.92V106.92H351.711V108.92H353.711ZM353.711 160.64H351.711V162.64H353.711V160.64ZM349.871 76H353.711V72H349.871V76ZM353.711 76C359.767 76 363.785 77.423 366.216 79.8542L369.045 77.0258C365.556 73.5369 360.295 72 353.711 72V76ZM366.236 79.8734C368.682 82.2531 370.071 85.932 370.071 91.28H374.071C374.071 85.268 372.5 80.3869 369.025 77.0065L366.236 79.8734ZM370.071 91.28C370.071 94.1459 369.238 96.9398 367.5 99.692L370.882 101.828C372.983 98.5002 374.071 94.9741 374.071 91.28H370.071ZM367.513 99.6716C365.773 102.353 363.763 104.033 361.516 104.892L362.945 108.628C366.138 107.407 368.768 105.087 370.869 101.848L367.513 99.6716ZM361.909 108.734C368.391 109.789 373.237 112.463 376.637 116.659L379.744 114.141C375.625 109.057 369.831 105.971 362.552 104.786L361.909 108.734ZM376.637 116.659C380.04 120.859 381.831 126.457 381.831 133.64H385.831C385.831 125.783 383.861 119.221 379.744 114.141L376.637 116.659ZM381.831 133.64C381.831 139.337 380.58 144.308 378.132 148.611L381.609 150.589C384.441 145.612 385.831 139.943 385.831 133.64H381.831ZM378.14 148.598C375.683 152.841 372.308 156.143 367.984 158.529L369.917 162.031C374.873 159.297 378.778 155.479 381.601 150.602L378.14 148.598ZM367.995 158.523C363.751 160.831 359.004 162 353.711 162V166C359.617 166 365.03 164.689 369.906 162.037L367.995 158.523ZM353.711 162H349.871V166H353.711V162ZM351.871 164V74H347.871V164H351.871ZM354.671 107.68C359.063 107.68 362.829 106.052 365.846 102.852L362.935 100.108C360.672 102.508 357.958 103.68 354.671 103.68V107.68ZM365.846 102.852C368.858 99.657 370.351 95.7163 370.351 91.16H366.351C366.351 94.7637 365.203 97.703 362.935 100.108L365.846 102.852ZM370.351 91.16C370.351 86.2975 369.156 82.2744 366.429 79.4508L363.552 82.2292C365.306 84.0456 366.351 86.9025 366.351 91.16H370.351ZM366.454 79.4772C363.764 76.5872 359.674 75.36 354.671 75.36V79.36C359.108 79.36 361.897 80.4528 363.527 82.2028L366.454 79.4772ZM354.671 75.36H353.711V79.36H354.671V75.36ZM351.711 77.36V105.68H355.711V77.36H351.711ZM353.711 107.68H354.671V103.68H353.711V107.68ZM354.671 162.64C359.722 162.64 364.353 161.437 368.518 159.008L366.503 155.552C362.988 157.603 359.059 158.64 354.671 158.64V162.64ZM368.545 158.992C372.698 156.483 375.981 153.019 378.384 148.643L374.877 146.717C372.8 150.501 370.003 153.437 366.476 155.568L368.545 158.992ZM378.384 148.643C380.802 144.239 381.991 139.302 381.991 133.88H377.991C377.991 138.698 376.94 142.961 374.877 146.717L378.384 148.643ZM381.991 133.88C381.991 125.295 379.692 118.486 374.765 113.827L372.017 116.733C375.889 120.394 377.991 125.985 377.991 133.88H381.991ZM374.792 113.853C369.982 109.133 363.167 106.92 354.671 106.92V110.92C362.494 110.92 368.159 112.947 371.99 116.707L374.792 113.853ZM354.671 106.92H353.711V110.92H354.671V106.92ZM351.711 108.92V160.64H355.711V108.92H351.711ZM353.711 162.64H354.671V158.64H353.711V162.64ZM434.509 158.84L433.513 157.106L433.513 157.106L434.509 158.84ZM443.869 149.96H445.869V143.295L442.2 148.859L443.869 149.96ZM443.869 156.08L445.354 157.42L445.869 156.849V156.08H443.869ZM434.149 163.28L434.906 165.131L434.924 165.124L434.942 165.116L434.149 163.28ZM408.109 161.48L407.066 163.187L407.073 163.191L407.08 163.195L408.109 161.48ZM397.669 150.92L395.94 151.926L395.947 151.937L395.954 151.949L397.669 150.92ZM397.669 122.48L399.381 123.514L399.385 123.507L399.39 123.5L397.669 122.48ZM408.109 112.4L407.165 110.637L407.158 110.641L407.151 110.644L408.109 112.4ZM444.229 118.64L445.634 120.063L446.986 118.729L445.723 117.31L444.229 118.64ZM406.549 155.84L405.144 154.417L403.561 155.979L405.283 157.388L406.549 155.84ZM414.229 160.64L413.456 162.484L413.481 162.495L413.507 162.505L414.229 160.64ZM404.269 153.56L402.806 154.924L404.214 156.434L405.678 154.979L404.269 153.56ZM439.429 118.64L440.838 120.059L442.357 118.551L440.749 117.138L439.429 118.64ZM431.749 113.72L430.976 115.564L431.001 115.575L431.027 115.585L431.749 113.72ZM409.789 115.4L410.757 117.15L410.763 117.147L410.77 117.143L409.789 115.4ZM422.629 164.08C427.154 164.08 431.456 162.901 435.505 160.574L433.513 157.106C430.043 159.099 426.424 160.08 422.629 160.08V164.08ZM435.505 160.574C439.547 158.253 442.894 155.071 445.539 151.061L442.2 148.859C439.885 152.369 436.991 155.107 433.513 157.106L435.505 160.574ZM441.869 149.96V156.08H445.869V149.96H441.869ZM442.384 154.74C439.587 157.839 436.575 160.054 433.356 161.444L434.942 165.116C438.763 163.466 442.231 160.881 445.354 157.42L442.384 154.74ZM433.392 161.429C430.151 162.755 426.415 163.44 422.149 163.44V167.44C426.843 167.44 431.107 166.685 434.906 165.131L433.392 161.429ZM422.149 163.44C417.564 163.44 413.238 162.225 409.138 159.765L407.08 163.195C411.78 166.015 416.814 167.44 422.149 167.44V163.44ZM409.152 159.773C405.111 157.304 401.86 154.018 399.384 149.891L395.954 151.949C398.758 156.622 402.467 160.376 407.066 163.187L409.152 159.773ZM399.398 149.914C397.011 145.811 395.829 141.477 395.829 136.88H391.829C391.829 142.203 393.208 147.229 395.94 151.926L399.398 149.914ZM395.829 136.88C395.829 131.853 397.025 127.416 399.381 123.514L395.957 121.446C393.193 126.024 391.829 131.187 391.829 136.88H395.829ZM399.39 123.5C401.767 119.489 404.983 116.383 409.067 114.156L407.151 110.644C402.435 113.217 398.692 116.831 395.948 121.46L399.39 123.5ZM409.054 114.163C413.223 111.929 417.855 110.8 422.989 110.8V106.8C417.243 106.8 411.955 108.071 407.165 110.637L409.054 114.163ZM422.989 110.8C430.703 110.8 437.251 113.809 442.735 119.97L445.723 117.31C439.527 110.351 431.915 106.8 422.989 106.8V110.8ZM442.824 117.217L405.144 154.417L407.954 157.263L445.634 120.063L442.824 117.217ZM405.283 157.388C408.034 159.639 410.758 161.353 413.456 162.484L415.003 158.796C412.74 157.847 410.344 156.361 407.816 154.292L405.283 157.388ZM413.507 162.505C416.254 163.568 419.304 164.08 422.629 164.08V160.08C419.714 160.08 417.165 159.632 414.951 158.775L413.507 162.505ZM395.669 136.52C395.669 143.65 398.05 149.822 402.806 154.924L405.732 152.196C401.688 147.858 399.669 142.67 399.669 136.52H395.669ZM405.678 154.979L440.838 120.059L438.02 117.221L402.86 152.141L405.678 154.979ZM440.749 117.138C437.986 114.71 435.228 112.922 432.471 111.855L431.027 115.585C433.23 116.438 435.592 117.93 438.109 120.142L440.749 117.138ZM432.523 111.876C429.74 110.709 426.504 110.16 422.869 110.16V114.16C426.115 114.16 428.799 114.651 430.976 115.564L432.523 111.876ZM422.869 110.16C417.683 110.16 412.979 111.311 408.809 113.657L410.77 117.143C414.279 115.169 418.295 114.16 422.869 114.16V110.16ZM408.821 113.65C404.749 115.902 401.527 119.036 399.184 123.028L402.634 125.052C404.611 121.684 407.309 119.058 410.757 117.15L408.821 113.65ZM399.184 123.028C396.828 127.041 395.669 131.556 395.669 136.52H399.669C399.669 132.204 400.67 128.399 402.634 125.052L399.184 123.028ZM470.392 161.36L469.376 163.083L469.383 163.087L469.39 163.091L470.392 161.36ZM460.072 150.92L461.82 149.949L458.072 143.202V150.92H460.072ZM460.072 164V166H462.072V164H460.072ZM456.232 164H454.232V166H456.232V164ZM456.232 74V72H454.232V74H456.232ZM460.072 74H462.072V72H460.072V74ZM460.072 123.68H458.072L461.879 124.536L460.072 123.68ZM470.152 112.76L469.127 111.042L469.127 111.042L470.152 112.76ZM498.832 112.52L497.812 114.241L497.819 114.245L497.826 114.249L498.832 112.52ZM509.272 122.84L507.551 123.86L507.551 123.86L509.272 122.84ZM509.272 151.16L507.551 150.14L507.551 150.14L509.272 151.16ZM498.832 161.48L497.826 159.751L497.819 159.755L497.812 159.759L498.832 161.48ZM497.032 158.6L498.055 160.318L498.069 160.31L498.082 160.302L497.032 158.6ZM505.912 149.48L504.184 148.472L504.178 148.484L505.912 149.48ZM505.912 124.64L507.639 123.632L507.639 123.632L505.912 124.64ZM496.912 115.52L495.862 117.222L495.875 117.23L495.888 117.238L496.912 115.52ZM472.312 115.52L471.278 113.808L471.27 113.813L471.262 113.818L472.312 115.52ZM463.192 124.76L461.48 123.726L461.472 123.739L461.464 123.752L463.192 124.76ZM463.192 149.48L461.464 150.488L461.477 150.509L461.49 150.53L463.192 149.48ZM472.432 158.6L471.398 160.312L471.411 160.32L471.424 160.328L472.432 158.6ZM484.552 163.32C480.052 163.32 475.674 162.107 471.394 159.629L469.39 163.091C474.229 165.893 479.292 167.32 484.552 167.32V163.32ZM471.407 159.637C467.217 157.168 464.038 153.941 461.82 149.949L458.324 151.891C460.906 156.539 464.606 160.272 469.376 163.083L471.407 159.637ZM458.072 150.92V164H462.072V150.92H458.072ZM460.072 162H456.232V166H460.072V162ZM458.232 164V74H454.232V164H458.232ZM456.232 76H460.072V72H456.232V76ZM458.072 74V123.68H462.072V74H458.072ZM461.879 124.536C463.86 120.354 466.938 117.006 471.176 114.478L469.127 111.042C464.245 113.954 460.603 117.886 458.264 122.824L461.879 124.536ZM471.176 114.478C475.444 111.932 479.892 110.68 484.552 110.68V106.68C479.132 106.68 473.98 108.148 469.127 111.042L471.176 114.478ZM484.552 110.68C489.406 110.68 493.812 111.87 497.812 114.241L499.851 110.799C495.212 108.05 490.097 106.68 484.552 106.68V110.68ZM497.826 114.249C501.935 116.64 505.168 119.837 507.551 123.86L510.992 121.82C508.256 117.203 504.528 113.52 499.838 110.791L497.826 114.249ZM507.551 123.86C509.925 127.865 511.112 132.231 511.112 137H515.112C515.112 131.529 513.739 126.455 510.992 121.82L507.551 123.86ZM511.112 137C511.112 141.769 509.925 146.135 507.551 150.14L510.992 152.18C513.739 147.545 515.112 142.471 515.112 137H511.112ZM507.551 150.14C505.168 154.163 501.935 157.36 497.826 159.751L499.838 163.209C504.528 160.48 508.256 156.797 510.992 152.18L507.551 150.14ZM497.812 159.759C493.812 162.13 489.406 163.32 484.552 163.32V167.32C490.097 167.32 495.212 165.95 499.851 163.201L497.812 159.759ZM484.792 163.96C489.55 163.96 493.984 162.744 498.055 160.318L496.008 156.882C492.56 158.936 488.834 159.96 484.792 159.96V163.96ZM498.082 160.302C502.12 157.811 505.317 154.53 507.646 150.476L504.178 148.484C502.187 151.95 499.464 154.749 495.982 156.898L498.082 160.302ZM507.639 150.488C510.059 146.339 511.272 141.831 511.272 137H507.272C507.272 141.129 506.244 144.941 504.184 148.472L507.639 150.488ZM511.272 137C511.272 132.242 510.056 127.775 507.639 123.632L504.184 125.648C506.248 129.185 507.272 132.958 507.272 137H511.272ZM507.639 123.632C505.232 119.504 501.991 116.218 497.935 113.802L495.888 117.238C499.352 119.302 502.112 122.096 504.184 125.648L507.639 123.632ZM497.962 113.818C493.888 111.304 489.444 110.04 484.672 110.04V114.04C488.699 114.04 492.416 115.096 495.862 117.222L497.962 113.818ZM484.672 110.04C479.9 110.04 475.423 111.304 471.278 113.808L473.346 117.232C476.881 115.096 480.644 114.04 484.672 114.04V110.04ZM471.262 113.818C467.227 116.307 463.962 119.618 461.48 123.726L464.904 125.794C467.062 122.222 469.877 119.373 473.362 117.222L471.262 113.818ZM461.464 123.752C459.048 127.895 457.832 132.362 457.832 137.12H461.832C461.832 133.078 462.856 129.305 464.919 125.768L461.464 123.752ZM457.832 137.12C457.832 141.878 459.048 146.345 461.464 150.488L464.919 148.472C462.856 144.935 461.832 141.162 461.832 137.12H457.832ZM461.49 150.53C463.979 154.565 467.29 157.83 471.398 160.312L473.466 156.888C469.894 154.73 467.044 151.915 464.894 148.43L461.49 150.53ZM471.424 160.328C475.567 162.744 480.034 163.96 484.792 163.96V159.96C480.75 159.96 476.977 158.936 473.44 156.872L471.424 160.328ZM526.818 96.44L525.404 97.8542L525.438 97.8879L525.473 97.9199L526.818 96.44ZM526.818 90.56L525.473 89.0801L525.438 89.1121L525.404 89.1458L526.818 90.56ZM532.698 90.56L531.284 91.9742L531.318 92.0079L531.353 92.0399L532.698 90.56ZM532.698 96.44L531.353 94.9601L531.318 94.9921L531.284 95.0258L532.698 96.44ZM527.898 110V108H525.898V110H527.898ZM531.738 110H533.738V108H531.738V110ZM531.738 164V166H533.738V164H531.738ZM527.898 164H525.898V166H527.898V164ZM529.818 95.64C529.228 95.64 528.7 95.4481 528.163 94.9601L525.473 97.9199C526.696 99.0319 528.168 99.64 529.818 99.64V95.64ZM528.232 95.0258C527.832 94.6254 527.618 94.1453 527.618 93.44H523.618C523.618 95.1347 524.204 96.6546 525.404 97.8542L528.232 95.0258ZM527.618 93.44C527.618 92.8564 527.803 92.4034 528.232 91.9742L525.404 89.1458C524.233 90.3166 523.618 91.7835 523.618 93.44H527.618ZM528.163 92.0399C528.7 91.5519 529.228 91.36 529.818 91.36V87.36C528.168 87.36 526.696 87.9681 525.473 89.0801L528.163 92.0399ZM529.818 91.36C530.402 91.36 530.855 91.545 531.284 91.9742L534.112 89.1458C532.942 87.975 531.475 87.36 529.818 87.36V91.36ZM531.353 92.0399C531.845 92.4873 532.018 92.9216 532.018 93.44H536.018C536.018 91.7184 535.311 90.2327 534.043 89.0801L531.353 92.0399ZM532.018 93.44C532.018 94.0823 531.812 94.543 531.353 94.9601L534.043 97.9199C535.345 96.737 536.018 95.1977 536.018 93.44H532.018ZM531.284 95.0258C530.855 95.455 530.402 95.64 529.818 95.64V99.64C531.475 99.64 532.942 99.025 534.112 97.8542L531.284 95.0258ZM527.898 112H531.738V108H527.898V112ZM529.738 110V164H533.738V110H529.738ZM531.738 162H527.898V166H531.738V162ZM529.898 164V110H525.898V164H529.898ZM560.67 161.48L559.651 163.201L559.658 163.205L559.665 163.209L560.67 161.48ZM550.35 151.16L552.071 150.14L552.071 150.14L550.35 151.16ZM550.35 122.84L548.63 121.82L548.63 121.82L550.35 122.84ZM560.67 112.52L559.665 110.791L559.658 110.795L559.651 110.799L560.67 112.52ZM589.47 112.76L588.446 114.478L588.457 114.484L588.468 114.491L589.47 112.76ZM599.55 123.2L597.761 124.094L601.55 123.2H599.55ZM599.55 74V72H597.55V74H599.55ZM603.39 74H605.39V72H603.39V74ZM603.39 164V166H605.39V164H603.39ZM599.55 164H597.55V166H599.55V164ZM599.55 150.92H601.55V143.202L597.802 149.949L599.55 150.92ZM589.11 161.36L588.108 159.629L588.102 159.633L588.095 159.637L589.11 161.36ZM587.19 158.6L588.214 160.318L588.225 160.312L587.19 158.6ZM596.31 149.48L594.598 148.446L594.592 148.456L596.31 149.48ZM596.31 124.76L594.583 125.768L594.591 125.781L594.598 125.794L596.31 124.76ZM587.19 115.52L586.14 117.222L586.148 117.227L586.156 117.232L587.19 115.52ZM562.71 115.52L563.734 117.238L563.747 117.23L563.761 117.222L562.71 115.52ZM553.59 149.48L551.847 150.461L551.859 150.482L551.872 150.504L553.59 149.48ZM562.59 158.6L561.54 160.302L561.561 160.315L561.583 160.328L562.59 158.6ZM575.07 163.32C570.216 163.32 565.764 162.13 561.676 159.751L559.665 163.209C564.377 165.95 569.525 167.32 575.07 167.32V163.32ZM561.69 159.759C557.659 157.371 554.46 154.172 552.071 150.14L548.63 152.18C551.361 156.788 555.042 160.469 559.651 163.201L561.69 159.759ZM552.071 150.14C549.698 146.135 548.51 141.769 548.51 137H544.51C544.51 142.471 545.883 147.545 548.63 152.18L552.071 150.14ZM548.51 137C548.51 132.231 549.698 127.865 552.071 123.86L548.63 121.82C545.883 126.455 544.51 131.529 544.51 137H548.51ZM552.071 123.86C554.46 119.828 557.659 116.629 561.69 114.241L559.651 110.799C555.042 113.531 551.361 117.212 548.63 121.82L552.071 123.86ZM561.676 114.249C565.764 111.87 570.216 110.68 575.07 110.68V106.68C569.525 106.68 564.377 108.05 559.665 110.791L561.676 114.249ZM575.07 110.68C579.73 110.68 584.178 111.932 588.446 114.478L590.495 111.042C585.642 108.148 580.491 106.68 575.07 106.68V110.68ZM588.468 114.491C592.722 116.954 595.792 120.156 597.761 124.094L601.339 122.306C598.988 117.604 595.339 113.846 590.472 111.029L588.468 114.491ZM601.55 123.2V74H597.55V123.2H601.55ZM599.55 76H603.39V72H599.55V76ZM601.39 74V164H605.39V74H601.39ZM603.39 162H599.55V166H603.39V162ZM601.55 164V150.92H597.55V164H601.55ZM597.802 149.949C595.589 153.932 592.377 157.158 588.108 159.629L590.112 163.091C594.964 160.282 598.711 156.548 601.299 151.891L597.802 149.949ZM588.095 159.637C583.902 162.108 579.57 163.32 575.07 163.32V167.32C580.331 167.32 585.359 165.892 590.126 163.083L588.095 159.637ZM574.95 163.96C579.709 163.96 584.143 162.744 588.214 160.318L586.167 156.882C582.718 158.936 578.992 159.96 574.95 159.96V163.96ZM588.225 160.312C592.338 157.826 595.616 154.553 598.029 150.504L594.592 148.456C592.524 151.927 589.722 154.734 586.156 156.888L588.225 160.312ZM598.022 150.514C600.527 146.369 601.79 141.892 601.79 137.12H597.79C597.79 141.148 596.734 144.911 594.598 148.446L598.022 150.514ZM601.79 137.12C601.79 132.348 600.527 127.871 598.022 123.726L594.598 125.794C596.734 129.329 597.79 133.092 597.79 137.12H601.79ZM598.038 123.752C595.628 119.62 592.348 116.3 588.225 113.808L586.156 117.232C589.712 119.38 592.513 122.219 594.583 125.768L598.038 123.752ZM588.241 113.818C584.166 111.304 579.723 110.04 574.95 110.04V114.04C578.978 114.04 582.694 115.096 586.14 117.222L588.241 113.818ZM574.95 110.04C570.178 110.04 565.734 111.304 561.66 113.818L563.761 117.222C567.206 115.096 570.923 114.04 574.95 114.04V110.04ZM561.687 113.802C557.631 116.218 554.391 119.504 551.983 123.632L555.438 125.648C557.51 122.096 560.27 119.302 563.734 117.238L561.687 113.802ZM551.983 123.632C549.566 127.775 548.35 132.242 548.35 137H552.35C552.35 132.958 553.374 129.185 555.438 125.648L551.983 123.632ZM548.35 137C548.35 141.817 549.516 146.316 551.847 150.461L555.333 148.499C553.345 144.964 552.35 141.143 552.35 137H548.35ZM551.872 150.504C554.279 154.543 557.509 157.815 561.54 160.302L563.641 156.898C560.152 154.745 557.382 151.937 555.309 148.456L551.872 150.504ZM561.583 160.328C565.725 162.744 570.192 163.96 574.95 163.96V159.96C570.908 159.96 567.136 158.936 563.598 156.872L561.583 160.328ZM629.697 161.48L628.691 163.209L628.691 163.209L629.697 161.48ZM619.257 151.16L617.528 152.166L617.532 152.173L617.536 152.18L619.257 151.16ZM619.257 122.96L620.977 123.98L620.981 123.973L620.985 123.966L619.257 122.96ZM629.697 112.52L628.691 110.791L628.691 110.791L629.697 112.52ZM658.737 112.88L657.703 114.592L657.714 114.599L657.725 114.605L658.737 112.88ZM668.457 123.56L666.611 124.332L670.457 123.56H668.457ZM668.457 110V108H666.457V110H668.457ZM672.297 110H674.297V108H672.297V110ZM672.297 164V166H674.297V164H672.297ZM668.457 164H666.457V166H668.457V164ZM668.457 150.56H670.457L666.655 149.691L668.457 150.56ZM658.377 161.36L659.392 163.083L659.401 163.078L658.377 161.36ZM656.457 158.6L657.48 160.318L657.494 160.31L657.507 160.302L656.457 158.6ZM665.337 149.48L663.609 148.472L663.602 148.484L665.337 149.48ZM665.337 124.64L663.609 125.648L663.609 125.648L665.337 124.64ZM656.337 115.52L655.286 117.222L655.3 117.23L655.313 117.238L656.337 115.52ZM631.737 115.52L630.702 113.808L630.694 113.813L630.686 113.818L631.737 115.52ZM622.617 124.76L620.905 123.726L620.897 123.739L620.889 123.752L622.617 124.76ZM622.617 149.48L620.889 150.488L620.901 150.509L620.914 150.53L622.617 149.48ZM631.857 158.6L630.822 160.312L630.836 160.32L630.849 160.328L631.857 158.6ZM643.977 163.32C639.208 163.32 634.795 162.133 630.702 159.751L628.691 163.209C633.398 165.947 638.505 167.32 643.977 167.32V163.32ZM630.702 159.751C626.593 157.36 623.361 154.163 620.977 150.14L617.536 152.18C620.272 156.797 624 160.48 628.691 163.209L630.702 159.751ZM620.985 150.154C618.601 146.056 617.417 141.683 617.417 137H613.417C613.417 142.397 614.792 147.464 617.528 152.166L620.985 150.154ZM617.417 137C617.417 132.317 618.601 127.99 620.977 123.98L617.536 121.94C614.792 126.57 613.417 131.603 613.417 137H617.417ZM620.985 123.966C623.371 119.865 626.602 116.634 630.702 114.249L628.691 110.791C623.991 113.526 620.262 117.255 617.528 121.954L620.985 123.966ZM630.702 114.249C634.795 111.867 639.208 110.68 643.977 110.68V106.68C638.505 106.68 633.398 108.053 628.691 110.791L630.702 114.249ZM643.977 110.68C648.797 110.68 653.361 111.972 657.703 114.592L659.77 111.168C654.832 108.188 649.557 106.68 643.977 106.68V110.68ZM657.725 114.605C662.041 117.136 664.96 120.382 666.611 124.332L670.302 122.788C668.273 117.938 664.712 114.064 659.748 111.155L657.725 114.605ZM670.457 123.56V110H666.457V123.56H670.457ZM668.457 112H672.297V108H668.457V112ZM670.297 110V164H674.297V110H670.297ZM672.297 162H668.457V166H672.297V162ZM670.457 164V150.56H666.457V164H670.457ZM666.655 149.691C664.677 153.794 661.599 157.109 657.352 159.642L659.401 163.078C664.274 160.171 667.916 156.286 670.258 151.429L666.655 149.691ZM657.361 159.637C653.184 162.099 648.734 163.32 643.977 163.32V167.32C649.459 167.32 654.609 165.901 659.392 163.083L657.361 159.637ZM644.217 163.96C648.975 163.96 653.409 162.744 657.48 160.318L655.433 156.882C651.984 158.936 648.258 159.96 644.217 159.96V163.96ZM657.507 160.302C661.544 157.811 664.742 154.53 667.071 150.476L663.602 148.484C661.611 151.95 658.889 154.749 655.406 156.898L657.507 160.302ZM667.064 150.488C669.484 146.339 670.697 141.831 670.697 137H666.697C666.697 141.129 665.669 144.941 663.609 148.472L667.064 150.488ZM670.697 137C670.697 132.242 669.481 127.775 667.064 123.632L663.609 125.648C665.673 129.185 666.697 132.958 666.697 137H670.697ZM667.064 123.632C664.656 119.504 661.416 116.218 657.36 113.802L655.313 117.238C658.777 119.302 661.537 122.096 663.609 125.648L667.064 123.632ZM657.387 113.818C653.312 111.304 648.869 110.04 644.097 110.04V114.04C648.124 114.04 651.841 115.096 655.286 117.222L657.387 113.818ZM644.097 110.04C639.325 110.04 634.848 111.304 630.702 113.808L632.771 117.232C636.305 115.096 640.069 114.04 644.097 114.04V110.04ZM630.686 113.818C626.652 116.307 623.386 119.618 620.905 123.726L624.328 125.794C626.487 122.222 629.302 119.373 632.787 117.222L630.686 113.818ZM620.889 123.752C618.473 127.895 617.257 132.362 617.257 137.12H621.257C621.257 133.078 622.281 129.305 624.344 125.768L620.889 123.752ZM617.257 137.12C617.257 141.878 618.473 146.345 620.889 150.488L624.344 148.472C622.281 144.935 621.257 141.162 621.257 137.12H617.257ZM620.914 150.53C623.404 154.565 626.715 157.83 630.822 160.312L632.891 156.888C629.318 154.73 626.469 151.915 624.319 148.43L620.914 150.53ZM630.849 160.328C634.991 162.744 639.459 163.96 644.217 163.96V159.96C640.175 159.96 636.402 158.936 632.864 156.872L630.849 160.328ZM690.323 163.4L689.488 165.217L689.508 165.227L689.529 165.236L690.323 163.4ZM683.963 158.24H681.963V158.806L682.259 159.288L683.963 158.24ZM683.963 151.88L685.792 151.072L681.963 151.88H683.963ZM690.203 159.56L689.129 161.247L689.148 161.259L689.166 161.27L690.203 159.56ZM709.763 158.36L711.177 159.774L711.189 159.763L711.2 159.751L709.763 158.36ZM711.323 141.32L709.714 142.509L709.727 142.526L709.74 142.543L711.323 141.32ZM704.723 135.8L705.758 134.089L705.742 134.079L705.725 134.069L704.723 135.8ZM700.163 133.16L699.122 134.868L699.141 134.879L699.161 134.891L700.163 133.16ZM692.723 128.48L691.523 130.08L691.567 130.113L691.613 130.144L692.723 128.48ZM688.883 124.52L687.192 125.588L687.205 125.609L687.219 125.629L688.883 124.52ZM690.803 111.56L692.104 113.079L692.104 113.079L690.803 111.56ZM710.603 111.68H712.603V110.618L711.723 110.023L710.603 111.68ZM710.603 116.96L709.007 118.166L712.603 122.921V116.96H710.603ZM693.683 113.96L692.433 112.398L692.433 112.398L693.683 113.96ZM692.723 123.56L691.089 124.713L691.106 124.737L691.123 124.76L692.723 123.56ZM696.683 127.16L695.573 128.824L695.591 128.836L695.609 128.847L696.683 127.16ZM705.323 132.2L706.311 130.461L706.3 130.455L705.323 132.2ZM714.323 139.4L712.741 140.624L712.751 140.637L712.761 140.649L714.323 139.4ZM712.283 160.88L713.641 162.348L713.642 162.347L712.283 160.88ZM700.523 163.32C696.905 163.32 693.783 162.717 691.117 161.564L689.529 165.236C692.783 166.643 696.461 167.32 700.523 167.32V163.32ZM691.158 161.583C688.439 160.334 686.68 158.84 685.666 157.192L682.259 159.288C683.805 161.8 686.286 163.746 689.488 165.217L691.158 161.583ZM685.963 158.24V151.88H681.963V158.24H685.963ZM682.133 152.688C683.78 156.416 686.094 159.316 689.129 161.247L691.277 157.873C689.032 156.444 687.185 154.224 685.792 151.072L682.133 152.688ZM689.166 161.27C692.204 163.112 695.952 163.96 700.283 163.96V159.96C696.454 159.96 693.482 159.208 691.239 157.85L689.166 161.27ZM700.283 163.96C704.644 163.96 708.343 162.608 711.177 159.774L708.349 156.946C706.382 158.912 703.761 159.96 700.283 159.96V163.96ZM711.2 159.751C714.003 156.854 715.363 153.175 715.363 148.88H711.363C711.363 152.265 710.323 154.906 708.326 156.969L711.2 159.751ZM715.363 148.88C715.363 145.359 714.638 142.339 712.905 140.097L709.74 142.543C710.728 143.821 711.363 145.841 711.363 148.88H715.363ZM712.931 140.131C711.355 137.998 708.911 135.997 705.758 134.089L703.687 137.511C706.614 139.283 708.571 140.962 709.714 142.509L712.931 140.131ZM705.725 134.069L701.165 131.429L699.161 134.891L703.721 137.531L705.725 134.069ZM701.204 131.452C697.931 129.456 695.478 127.913 693.832 126.816L691.613 130.144C693.328 131.287 695.835 132.864 699.122 134.868L701.204 131.452ZM693.923 126.88C692.476 125.795 691.363 124.635 690.547 123.411L687.219 125.629C688.322 127.285 689.769 128.765 691.523 130.08L693.923 126.88ZM690.574 123.452C689.838 122.287 689.443 120.906 689.443 119.24H685.443C685.443 121.574 686.008 123.713 687.192 125.588L690.574 123.452ZM689.443 119.24C689.443 116.568 690.348 114.584 692.104 113.079L689.501 110.041C686.777 112.376 685.443 115.512 685.443 119.24H689.443ZM692.104 113.079C693.907 111.534 696.331 110.68 699.563 110.68V106.68C695.595 106.68 692.179 107.746 689.501 110.041L692.104 113.079ZM699.563 110.68C703.657 110.68 706.923 111.608 709.483 113.337L711.723 110.023C708.362 107.752 704.269 106.68 699.563 106.68V110.68ZM708.603 111.68V116.96H712.603V111.68H708.603ZM712.198 115.754C709.288 111.905 705.098 110.04 699.923 110.04V114.04C704.028 114.04 706.958 115.455 709.007 118.166L712.198 115.754ZM699.923 110.04C697.025 110.04 694.469 110.77 692.433 112.398L694.932 115.522C696.097 114.59 697.701 114.04 699.923 114.04V110.04ZM692.433 112.398C690.373 114.047 689.283 116.255 689.283 118.88H693.283C693.283 117.505 693.793 116.433 694.932 115.522L692.433 112.398ZM689.283 118.88C689.283 121.028 689.877 122.996 691.089 124.713L694.357 122.407C693.649 121.404 693.283 120.252 693.283 118.88H689.283ZM691.123 124.76C692.249 126.262 693.752 127.61 695.573 128.824L697.792 125.496C696.254 124.47 695.116 123.418 694.323 122.36L691.123 124.76ZM695.609 128.847C697.42 130 700.342 131.703 704.346 133.945L706.3 130.455C702.304 128.217 699.466 126.56 697.757 125.473L695.609 128.847ZM704.334 133.939C708.288 136.187 711.043 138.43 712.741 140.624L715.904 138.176C713.763 135.41 710.518 132.853 706.311 130.461L704.334 133.939ZM712.761 140.649C714.327 142.607 715.203 145.287 715.203 148.88H719.203C719.203 144.633 718.159 140.993 715.885 138.151L712.761 140.649ZM715.203 148.88C715.203 153.351 713.748 156.795 710.923 159.413L713.642 162.347C717.378 158.885 719.203 154.329 719.203 148.88H715.203ZM710.925 159.412C708.12 162.007 704.695 163.32 700.523 163.32V167.32C705.631 167.32 710.046 165.673 713.641 162.348L710.925 159.412Z" fill="#FAFF00" mask="url(#path-1-outside-1_605_9)"/>
</g>
<g filter="url(#filter1_dddddd_605_9)">
<rect x="26.5" y="26.5" width="706" height="205" rx="10.5" stroke="white" stroke-width="3"/>
</g>
<defs>
<filter id="filter0_ddddd_605_9" x="37.7584" y="49" width="704.444" height="141.44" filterUnits="userSpaceOnUse" color-interpolation-filters="sRGB">
<feFlood flood-opacity="0" result="BackgroundImageFix"/>
<feColorMatrix in="SourceAlpha" type="matrix" values="0 0 0 0 0 0 0 0 0 0 0 0 0 0 0 0 0 0 127 0" result="hardAlpha"/>
<feOffset/>
<feGaussianBlur stdDeviation="12.5"/>
<feComposite in2="hardAlpha" operator="out"/>
<feColorMatrix type="matrix" values="0 0 0 0 0.980392 0 0 0 0 1 0 0 0 0 0 0 0 0 0.25 0"/>
<feBlend mode="normal" in2="BackgroundImageFix" result="effect1_dropShadow_605_9"/>
<feColorMatrix in="SourceAlpha" type="matrix" values="0 0 0 0 0 0 0 0 0 0 0 0 0 0 0 0 0 0 127 0" result="hardAlpha"/>
<feOffset/>
<feGaussianBlur stdDeviation="12.5"/>
<feComposite in2="hardAlpha" operator="out"/>
<feColorMatrix type="matrix" values="0 0 0 0 0.980392 0 0 0 0 1 0 0 0 0 0 0 0 0 0.25 0"/>
<feBlend mode="normal" in2="effect1_dropShadow_605_9" result="effect2_dropShadow_605_9"/>
<feColorMatrix in="SourceAlpha" type="matrix" values="0 0 0 0 0 0 0 0 0 0 0 0 0 0 0 0 0 0 127 0" result="hardAlpha"/>
<feOffset/>
<feGaussianBlur stdDeviation="12.5"/>
<feComposite in2="hardAlpha" operator="out"/>
<feColorMatrix type="matrix" values="0 0 0 0 0.980392 0 0 0 0 1 0 0 0 0 0 0 0 0 0.25 0"/>
<feBlend mode="normal" in2="effect2_dropShadow_605_9" result="effect3_dropShadow_605_9"/>
<feColorMatrix in="SourceAlpha" type="matrix" values="0 0 0 0 0 0 0 0 0 0 0 0 0 0 0 0 0 0 127 0" result="hardAlpha"/>
<feOffset/>
<feGaussianBlur stdDeviation="12.5"/>
<feComposite in2="hardAlpha" operator="out"/>
<feColorMatrix type="matrix" values="0 0 0 0 0.980392 0 0 0 0 1 0 0 0 0 0 0 0 0 0.25 0"/>
<feBlend mode="normal" in2="effect3_dropShadow_605_9" result="effect4_dropShadow_605_9"/>
<feColorMatrix in="SourceAlpha" type="matrix" values="0 0 0 0 0 0 0 0 0 0 0 0 0 0 0 0 0 0 127 0" result="hardAlpha"/>
<feOffset/>
<feGaussianBlur stdDeviation="12.5"/>
<feComposite in2="hardAlpha" operator="out"/>
<feColorMatrix type="matrix" values="0 0 0 0 0.980392 0 0 0 0 1 0 0 0 0 0 0 0 0 0.25 0"/>
<feBlend mode="normal" in2="effect4_dropShadow_605_9" result="effect5_dropShadow_605_9"/>
<feBlend mode="normal" in="SourceGraphic" in2="effect5_dropShadow_605_9" result="shape"/>
</filter>
<filter id="filter1_dddddd_605_9" x="0" y="0" width="759" height="258" filterUnits="userSpaceOnUse" color-interpolation-filters="sRGB">
<feFlood flood-opacity="0" result="BackgroundImageFix"/>
<feColorMatrix in="SourceAlpha" type="matrix" values="0 0 0 0 0 0 0 0 0 0 0 0 0 0 0 0 0 0 127 0" result="hardAlpha"/>
<feOffset/>
<feGaussianBlur stdDeviation="12.5"/>
<feColorMatrix type="matrix" values="0 0 0 0 0 0 0 0 0 0.0999997 0 0 0 0 1 0 0 0 0.25 0"/>
<feBlend mode="normal" in2="BackgroundImageFix" result="effect1_dropShadow_605_9"/>
<feColorMatrix in="SourceAlpha" type="matrix" values="0 0 0 0 0 0 0 0 0 0 0 0 0 0 0 0 0 0 127 0" result="hardAlpha"/>
<feOffset/>
<feGaussianBlur stdDeviation="12.5"/>
<feColorMatrix type="matrix" values="0 0 0 0 0 0 0 0 0 0.0999997 0 0 0 0 1 0 0 0 0.25 0"/>
<feBlend mode="normal" in2="effect1_dropShadow_605_9" result="effect2_dropShadow_605_9"/>
<feColorMatrix in="SourceAlpha" type="matrix" values="0 0 0 0 0 0 0 0 0 0 0 0 0 0 0 0 0 0 127 0" result="hardAlpha"/>
<feOffset/>
<feGaussianBlur stdDeviation="12.5"/>
<feColorMatrix type="matrix" values="0 0 0 0 0 0 0 0 0 0.0999997 0 0 0 0 1 0 0 0 0.25 0"/>
<feBlend mode="normal" in2="effect2_dropShadow_605_9" result="effect3_dropShadow_605_9"/>
<feColorMatrix in="SourceAlpha" type="matrix" values="0 0 0 0 0 0 0 0 0 0 0 0 0 0 0 0 0 0 127 0" result="hardAlpha"/>
<feOffset/>
<feGaussianBlur stdDeviation="12.5"/>
<feColorMatrix type="matrix" values="0 0 0 0 0 0 0 0 0 0.0999997 0 0 0 0 1 0 0 0 0.25 0"/>
<feBlend mode="normal" in2="effect3_dropShadow_605_9" result="effect4_dropShadow_605_9"/>
<feColorMatrix in="SourceAlpha" type="matrix" values="0 0 0 0 0 0 0 0 0 0 0 0 0 0 0 0 0 0 127 0" result="hardAlpha"/>
<feOffset/>
<feGaussianBlur stdDeviation="12.5"/>
<feColorMatrix type="matrix" values="0 0 0 0 0 0 0 0 0 0.0999997 0 0 0 0 1 0 0 0 0.25 0"/>
<feBlend mode="normal" in2="effect4_dropShadow_605_9" result="effect5_dropShadow_605_9"/>
<feColorMatrix in="SourceAlpha" type="matrix" values="0 0 0 0 0 0 0 0 0 0 0 0 0 0 0 0 0 0 127 0" result="hardAlpha"/>
<feOffset/>
<feGaussianBlur stdDeviation="12.5"/>
<feColorMatrix type="matrix" values="0 0 0 0 0 0 0 0 0 0.0999997 0 0 0 0 1 0 0 0 0.25 0"/>
<feBlend mode="normal" in2="effect5_dropShadow_605_9" result="effect6_dropShadow_605_9"/>
<feBlend mode="normal" in="SourceGraphic" in2="effect6_dropShadow_605_9" result="shape"/>
</filter>
</defs>
</svg>
